<?xml version="1.0" standalone="no"?>
<!DOCTYPE svg PUBLIC "-//W3C//DTD SVG 20010904//EN"
 "http://www.w3.org/TR/2001/REC-SVG-20010904/DTD/svg10.dtd">
<svg version="1.0" xmlns="http://www.w3.org/2000/svg"
 width="1000.000000pt" height="1000.000000pt" viewBox="0 0 1000.000000 1000.000000"
 preserveAspectRatio="xMidYMid meet">
<metadata>
Created by potrace 1.14, written by Peter Selinger 2001-2017
</metadata>
<g transform="translate(0.000000,1000.000000) scale(0.100000,-0.100000)"
fill="#000000" stroke="none">
<path d="M0 5000 l0 -5000 1270 0 c1266 0 1270 0 1314 21 25 11 71 43 103 71
49 42 434 428 556 557 21 23 80 75 130 117 51 42 145 130 209 196 104 107 121
129 144 191 19 49 35 74 54 85 57 33 58 53 10 262 -11 47 -31 144 -44 215 -27
138 -97 409 -116 444 -6 12 -9 21 -6 21 7 0 -24 103 -35 117 -12 13 -30 73
-23 73 10 0 174 -143 174 -151 0 -5 12 -21 28 -37 15 -16 39 -42 53 -58 14
-16 40 -40 58 -54 17 -14 43 -38 59 -54 27 -28 88 -61 107 -58 6 1 26 -12 45
-28 19 -17 39 -30 44 -30 5 0 14 -6 20 -14 10 -13 143 -58 157 -53 3 1 12 -3
20 -9 8 -6 27 -14 42 -18 15 -4 25 -10 22 -15 -2 -5 2 -11 10 -15 9 -3 12 -12
8 -22 -4 -12 -3 -15 5 -10 7 4 12 1 12 -8 0 -9 5 -16 10 -16 6 0 10 -8 10 -19
0 -13 9 -20 30 -25 26 -5 30 -10 28 -34 -1 -15 2 -33 6 -40 4 -7 2 -19 -4 -27
-6 -8 -9 -23 -5 -35 4 -11 2 -20 -4 -20 -6 0 -11 -16 -11 -35 0 -19 -4 -35 -8
-35 -5 0 -14 -11 -22 -24 -7 -13 -21 -27 -32 -30 -16 -4 -20 -11 -16 -36 3
-17 1 -33 -4 -36 -5 -3 -4 -12 2 -19 8 -9 8 -15 0 -20 -7 -4 -7 -13 1 -28 10
-18 9 -23 -9 -35 -17 -11 -20 -18 -11 -34 8 -16 6 -24 -14 -42 -28 -26 -40
-76 -27 -112 6 -15 6 -23 1 -19 -5 3 -13 0 -17 -6 -3 -6 -1 -14 5 -18 6 -4 10
-18 9 -32 -3 -24 -2 -24 72 -21 72 2 101 11 180 54 19 11 47 25 62 31 23 9 26
15 21 37 -6 23 -5 24 11 11 9 -8 15 -20 12 -28 -4 -9 3 -13 22 -13 15 0 36 -3
48 -6 18 -5 20 -2 16 24 -2 19 2 35 15 47 10 10 18 28 18 39 0 13 6 20 14 18
8 -2 17 1 20 6 3 5 16 12 27 16 19 6 22 2 28 -39 8 -53 3 -65 -29 -65 -13 0
-28 -6 -32 -14 -4 -8 -17 -16 -28 -19 -11 -2 2 -5 28 -6 30 -1 46 3 42 9 -10
15 6 12 26 -6 13 -11 27 -14 50 -9 22 5 28 10 18 16 -18 11 -8 19 32 24 129
17 195 33 210 51 6 8 20 14 30 14 11 0 19 7 19 16 0 10 6 14 14 11 8 -3 27 11
47 34 18 22 42 39 53 39 27 0 51 16 51 32 0 7 10 12 23 11 13 -2 22 3 22 11 0
7 6 19 14 26 8 6 12 18 10 25 -3 7 -1 22 5 33 12 23 3 62 -9 41 -6 -8 -11 -6
-19 9 -16 29 -4 51 33 60 28 8 31 12 33 53 2 64 3 67 15 39 7 -18 12 -21 15
-10 15 50 49 94 65 84 4 -2 9 0 13 6 3 5 -1 10 -10 10 -11 0 -15 5 -11 15 3 8
1 15 -4 15 -6 0 -10 5 -10 10 0 6 14 10 30 10 21 0 30 5 30 16 0 10 7 14 18
11 20 -4 83 24 64 30 -18 7 -4 23 21 24 12 0 16 3 10 6 -21 8 -15 29 11 43 13
7 27 21 29 32 4 13 10 17 18 12 9 -5 10 -2 6 9 -5 12 3 21 26 33 31 16 49 36
47 51 -2 10 30 21 63 22 29 1 37 18 12 27 -8 4 -15 10 -15 15 0 5 7 9 15 9 8
0 15 5 15 11 0 6 -9 9 -20 6 -21 -6 -26 8 -10 33 8 12 10 12 16 -3 3 -9 10
-15 15 -12 4 3 6 12 2 21 -3 8 -2 14 3 13 36 -6 44 13 18 42 -14 16 -13 18 15
24 22 5 31 12 31 26 0 10 5 19 11 19 5 0 7 5 4 10 -4 6 7 10 25 10 25 0 31 4
26 15 -3 8 -1 15 4 15 6 0 10 6 10 14 0 9 8 12 27 8 21 -4 25 -2 20 11 -3 9
-3 16 1 15 4 -1 19 4 33 10 27 11 43 36 40 62 -1 11 1 10 9 -3 6 -9 16 -15 21
-12 5 4 6 11 3 17 -5 7 0 9 14 6 12 -4 22 -2 22 3 0 5 -4 9 -10 9 -5 0 -10 5
-10 11 0 6 9 8 20 4 11 -4 20 -2 20 4 0 6 10 12 23 12 20 1 20 2 2 6 -33 8
-37 19 -10 33 14 7 25 17 25 22 0 4 6 8 14 8 8 0 16 10 18 22 2 16 13 26 38
33 19 5 41 14 48 18 6 5 16 6 21 2 16 -9 23 13 11 35 -15 28 -2 47 15 23 13
-17 15 -15 21 15 3 17 11 32 16 32 5 0 8 7 6 16 -2 10 3 19 9 21 9 3 11 -4 7
-25 -3 -16 -1 -32 4 -36 6 -3 8 -20 5 -37 -4 -26 -2 -31 11 -26 26 10 42 -2
44 -34 3 -37 -7 -57 -19 -38 -6 10 -9 8 -9 -8 0 -12 4 -24 9 -27 5 -3 4 -26
-1 -53 -6 -27 -10 -56 -9 -65 0 -10 1 -26 2 -35 3 -49 -10 -464 -16 -503 l-6
-45 23 30 c29 37 99 186 92 197 -3 4 -1 8 4 8 5 0 19 23 32 50 15 32 27 47 33
41 5 -5 16 -7 24 -4 26 10 63 -37 63 -79 0 -35 -8 -58 -61 -176 -31 -69 -27
-83 53 -158 179 -172 314 -286 430 -364 37 -25 68 -51 68 -57 0 -7 11 -15 25
-19 14 -3 25 -12 25 -20 0 -20 -17 -17 -29 3 -6 10 -11 14 -11 10 0 -7 -66 38
-108 74 -7 6 -38 24 -70 40 -31 17 -66 39 -78 50 -11 10 -24 19 -30 19 -18 1
-86 69 -79 79 3 6 0 11 -8 11 -8 0 -22 9 -32 20 -10 11 -23 20 -29 20 -6 0
-43 29 -81 65 -39 35 -75 64 -82 65 -7 0 -27 13 -45 28 -18 16 -41 26 -50 24
-23 -4 -22 -8 2 -32 11 -11 30 -19 42 -17 20 2 23 -2 20 -27 -2 -15 -13 -53
-24 -85 -11 -31 -22 -72 -25 -92 -4 -33 -3 -36 38 -55 24 -10 74 -45 112 -77
38 -32 77 -62 86 -67 9 -4 34 -25 56 -44 21 -20 44 -36 49 -36 6 0 28 -16 49
-35 21 -19 41 -35 45 -35 4 0 28 -18 52 -40 25 -21 50 -44 57 -50 7 -5 19 -10
28 -10 9 0 18 -7 21 -15 4 -8 12 -15 20 -15 8 0 14 -7 14 -15 0 -8 -4 -15 -9
-15 -4 0 -6 -12 -3 -26 3 -20 0 -26 -17 -31 -11 -3 -21 -12 -21 -21 0 -8 -3
-13 -6 -9 -3 3 -17 2 -30 -3 -15 -6 -24 -6 -24 0 0 6 6 10 14 10 9 0 12 8 8
25 -3 17 -31 47 -81 87 -42 34 -97 81 -123 105 -26 24 -51 43 -55 43 -4 0 -28
18 -53 41 -25 23 -61 49 -81 60 l-36 18 -22 -24 c-11 -14 -28 -25 -36 -25 -18
0 -19 12 -2 29 10 11 8 12 -10 6 -14 -4 -23 -2 -23 4 0 6 9 11 20 11 14 0 18
5 13 18 -9 23 -64 71 -84 72 -20 0 -73 -111 -159 -335 -23 -60 -48 -119 -55
-130 -7 -11 -16 -36 -20 -55 -4 -19 -13 -39 -20 -45 -7 -5 -15 -21 -18 -35 -8
-35 -56 -177 -77 -225 -10 -22 -24 -63 -33 -91 -8 -27 -24 -72 -35 -100 -107
-262 -109 -268 -67 -284 16 -6 25 -17 25 -30 0 -12 4 -19 9 -15 5 3 21 -6 35
-20 l25 -25 253 0 c211 1 250 3 236 14 -10 7 -15 16 -11 19 7 8 5 8 -55 11
-34 2 -50 9 -82 41 -33 32 -37 41 -25 48 8 4 15 15 15 22 0 11 10 14 34 12 22
-1 32 -6 29 -14 -5 -12 -1 -15 30 -17 18 -1 36 -20 30 -30 -3 -5 11 -7 31 -4
35 4 49 -5 24 -15 -8 -3 -6 -6 5 -6 10 -1 17 6 17 17 0 29 10 33 32 12 12 -11
18 -26 15 -34 -4 -11 1 -18 18 -22 15 -4 25 -13 25 -24 0 -10 9 -21 20 -25 24
-7 100 63 100 92 0 13 8 19 25 21 14 1 25 -3 25 -8 0 -6 10 -8 24 -4 21 5 24
1 31 -38 5 -24 8 -49 8 -56 -1 -8 8 -12 25 -10 22 3 30 13 50 68 13 36 37 94
53 130 15 36 31 75 34 88 4 12 13 22 22 22 13 0 13 2 2 16 -11 14 -10 18 6 30
14 10 16 17 8 25 -15 15 1 69 27 90 84 70 82 68 66 85 -42 42 -24 119 27 119
15 -1 27 3 27 7 0 4 9 8 20 8 11 0 20 5 20 12 0 17 11 3 14 -18 4 -27 32 -42
48 -25 11 11 8 17 -16 35 -73 53 -89 72 -83 97 3 13 12 33 20 43 14 19 15 19
72 -4 47 -19 61 -21 77 -11 10 6 23 9 27 6 5 -3 7 3 4 13 -3 14 5 23 31 36 19
9 43 24 52 34 10 9 24 17 33 17 17 0 24 15 13 31 -8 14 -169 114 -182 114 -14
0 -31 37 -24 53 11 29 51 28 136 -4 46 -16 94 -38 108 -47 41 -28 80 -42 117
-42 19 0 46 -6 61 -14 15 -7 48 -21 75 -30 39 -13 51 -14 69 -3 16 9 22 9 25
0 3 -7 16 -13 31 -13 14 0 39 -4 56 -10 17 -5 76 -24 131 -41 107 -32 149 -56
80 -43 -22 3 -48 11 -57 16 -19 9 -94 27 -139 33 -55 6 -64 -27 -12 -39 16 -4
62 -23 103 -44 41 -20 95 -39 120 -42 37 -4 46 -9 48 -27 2 -14 -3 -23 -17
-28 -12 -3 -21 -10 -21 -14 0 -25 37 -33 182 -36 84 -2 168 -8 186 -14 18 -5
40 -7 48 -4 8 3 14 -1 14 -11 0 -10 9 -16 24 -16 35 0 53 -26 33 -48 -11 -13
-12 -20 -4 -27 20 -18 69 -34 142 -46 39 -6 81 -16 95 -21 24 -9 207 -51 295
-67 23 -4 46 -10 52 -14 7 -4 30 0 53 9 29 12 57 15 96 11 35 -4 54 -2 54 5 0
14 72 3 110 -17 15 -8 30 -11 34 -8 3 4 6 2159 6 4790 l0 4783 -3879 0 -3879
0 -36 -41 c-19 -23 -39 -38 -45 -35 -6 4 -13 -5 -17 -19 -4 -17 -13 -25 -28
-25 -15 0 -17 -3 -7 -9 10 -7 9 -11 -8 -23 -11 -8 -18 -18 -14 -21 3 -4 1 -7
-6 -7 -7 0 -10 -4 -7 -9 4 -5 2 -20 -3 -33 -6 -12 -10 -18 -10 -11 -1 6 -10 9
-23 6 -23 -5 -23 -5 -3 12 17 14 17 16 3 11 -12 -3 -18 0 -18 9 0 8 -6 14 -12
13 -8 -2 -12 7 -11 25 1 15 -3 27 -9 27 -6 0 -4 7 5 18 8 9 26 38 40 65 l25
47 -1029 0 -1029 0 0 -5000z m6380 4711 c0 -6 -4 -12 -9 -15 -5 -3 -7 -15 -4
-25 3 -10 0 -22 -6 -25 -6 -4 -11 -16 -11 -26 0 -10 -4 -22 -10 -25 -6 -3 -7
1 -4 12 5 17 5 17 -6 0 -11 -17 -17 -36 -19 -60 -1 -5 -5 -6 -10 -3 -5 3 -12
-5 -15 -19 -6 -22 -9 -23 -31 -13 -28 13 -37 62 -10 52 10 -4 15 0 16 12 0 18
1 18 8 0 5 -14 10 -16 15 -7 4 6 5 19 2 27 -3 9 -1 12 4 9 6 -3 10 -1 10 4 0
6 -6 11 -12 11 -10 0 -10 2 -1 8 7 5 14 21 15 36 2 21 9 29 30 33 16 3 28 9
28 14 0 5 5 9 10 9 6 0 10 -4 10 -9z m764 -172 c4 6 13 11 21 11 16 0 30 -33
16 -38 -6 -2 -11 -10 -11 -18 0 -17 -27 -19 -32 -2 -4 10 -10 10 -31 1 -21
-10 -27 -10 -27 -1 0 18 44 57 51 45 4 -5 9 -5 13 2z m-1977 -96 c111 -4 125
-7 150 -29 15 -13 36 -27 46 -30 29 -9 19 -22 -25 -30 -24 -4 -47 -8 -53 -8
-19 -2 -57 -35 -51 -45 4 -5 -3 -15 -14 -21 -47 -25 -175 -186 -221 -277 -11
-23 -27 -47 -35 -54 -11 -9 -14 -7 -15 12 -1 13 -5 6 -8 -16 -5 -32 -11 -41
-31 -45 -30 -6 -90 -58 -90 -77 0 -8 -4 -12 -9 -9 -5 3 -11 0 -14 -8 -6 -14
19 -31 25 -17 4 9 172 91 187 91 6 0 11 5 11 10 0 13 31 25 88 35 28 4 42 3
42 -4 0 -6 -7 -11 -16 -11 -12 0 -15 -6 -11 -22 5 -18 -13 -41 -95 -124 -55
-56 -107 -115 -115 -130 -32 -66 -50 -94 -82 -129 -20 -22 -34 -49 -36 -68 -5
-55 -14 -81 -35 -98 -65 -54 -77 -68 -92 -105 -9 -22 -29 -63 -46 -90 -27 -46
-48 -104 -38 -104 3 0 19 23 37 50 23 36 39 50 55 50 21 0 74 39 74 54 0 8 58
66 66 66 10 0 122 117 145 152 16 25 29 36 40 33 10 -4 20 4 28 21 6 15 14 24
17 21 3 -3 -2 -17 -12 -31 -9 -15 -14 -30 -10 -33 3 -4 -4 -17 -16 -30 -20
-21 -20 -23 -3 -23 10 0 15 -3 11 -7 -4 -5 -10 -7 -13 -5 -7 5 -84 -111 -78
-116 11 -11 108 104 110 130 0 3 23 32 50 63 28 32 52 62 54 68 7 18 35 47 47
47 6 0 29 19 50 43 47 49 174 167 174 160 0 -3 8 3 18 14 9 10 14 14 11 8 -11
-19 -117 -150 -158 -195 -23 -24 -41 -48 -41 -52 0 -4 -7 -8 -15 -8 -8 0 -15
-6 -15 -13 0 -7 -14 -26 -31 -43 -38 -36 -64 -86 -74 -141 -4 -24 -12 -43 -18
-43 -16 0 -57 -61 -57 -84 0 -13 5 -16 20 -11 11 4 20 2 20 -4 0 -19 26 -12
46 12 11 12 33 48 48 80 16 31 33 57 38 57 13 0 111 104 147 155 15 22 40 58
54 79 15 21 27 50 27 64 0 14 10 36 22 49 12 13 22 34 23 46 1 38 54 127 110
185 55 55 90 70 40 16 -15 -16 -31 -38 -37 -49 -8 -18 -8 -19 5 -3 9 12 17 14
24 7 7 -7 17 0 31 23 26 41 70 68 115 70 29 1 37 7 51 35 9 19 21 31 27 28 5
-4 28 5 49 19 47 31 52 32 74 7 17 -19 17 -20 -6 -32 -13 -6 -34 -24 -48 -39
-16 -17 -37 -27 -60 -28 -19 -2 -39 -7 -44 -12 -4 -4 -15 -6 -24 -3 -10 4 -13
2 -9 -5 4 -6 -9 -22 -30 -38 -37 -26 -46 -38 -88 -120 -26 -52 -25 -51 -35
-34 -8 13 -10 13 -10 1 0 -8 -7 -22 -16 -32 -8 -9 -16 -28 -18 -42 -1 -14 -7
-32 -13 -39 -5 -7 -13 -22 -18 -33 -4 -12 -9 -15 -12 -8 -8 21 -51 -14 -63
-51 -5 -17 -50 -73 -98 -122 -79 -82 -119 -136 -191 -256 -27 -46 -62 -138
-52 -138 15 0 115 136 121 164 4 24 11 30 34 31 18 0 35 9 44 23 22 33 35 27
17 -8 -22 -42 -9 -57 21 -24 14 14 23 29 20 32 -8 7 24 42 38 42 6 0 22 18 36
41 25 40 187 177 204 171 4 -1 28 16 53 39 24 22 48 38 51 34 4 -4 -5 -17 -19
-29 -15 -13 -30 -33 -33 -44 -4 -12 -16 -24 -27 -27 -43 -14 -113 -104 -173
-222 -41 -82 -42 -88 -20 -79 12 5 14 1 9 -17 l-6 -22 20 23 c12 14 25 20 32
16 9 -5 10 -1 7 14 -4 12 -2 25 3 28 5 3 9 -3 9 -13 0 -11 6 -25 13 -32 10
-10 9 -11 -4 -6 -10 4 -19 0 -22 -9 -4 -10 -1 -16 8 -16 8 0 15 -7 15 -15 0
-8 4 -15 10 -15 5 0 7 -7 3 -16 -3 -9 6 -5 22 10 31 29 61 35 51 11 -3 -8 -2
-15 2 -15 15 0 142 133 142 149 1 14 2 14 11 -2 5 -9 7 -22 4 -27 -12 -19 7
-32 20 -13 31 46 65 116 65 135 l0 22 20 -22 c22 -23 27 -48 8 -36 -7 5 -8 3
-4 -5 5 -7 1 -20 -7 -29 -8 -9 -17 -36 -20 -59 -5 -39 -3 -43 16 -44 21 -1 21
-2 2 -6 -29 -7 -39 -19 -31 -40 7 -17 8 -17 21 0 7 10 16 18 19 18 26 -3 35 6
60 58 15 33 39 69 52 82 13 12 24 28 24 35 0 13 78 135 95 146 5 4 6 8 1 8 -6
0 4 15 21 33 16 17 43 50 59 72 41 57 106 123 98 100 -4 -11 -23 -39 -41 -63
-26 -31 -32 -46 -24 -55 7 -10 5 -13 -11 -14 -28 -3 -41 -17 -44 -50 -1 -15
-5 -37 -7 -48 -2 -11 1 -23 7 -28 7 -4 3 -9 -11 -13 -14 -4 -23 -14 -23 -25 0
-11 -4 -19 -9 -19 -5 0 -16 -24 -26 -52 -9 -29 -29 -69 -44 -88 -15 -19 -35
-54 -44 -77 -9 -24 -26 -52 -37 -63 -22 -22 -25 -19 -10 10 5 10 7 26 3 35 -5
14 -9 10 -21 -16 -8 -19 -14 -38 -13 -42 5 -24 -25 -78 -46 -84 -13 -3 -30
-18 -39 -34 -14 -27 -13 -29 6 -29 12 0 19 4 16 8 -3 5 8 16 25 26 16 9 29 23
29 30 0 7 8 20 18 29 17 15 19 14 31 -28 7 -25 18 -45 23 -45 6 0 8 -7 4 -15
-3 -9 0 -15 9 -15 8 0 18 12 21 27 8 30 45 92 57 93 11 0 8 -23 -8 -54 -20
-38 -19 -53 5 -59 13 -3 25 2 35 16 13 18 17 20 25 7 5 -8 6 -18 4 -22 -3 -4
-1 -8 4 -8 5 0 15 15 22 33 6 17 16 39 21 47 18 29 30 65 32 92 2 26 17 41 17
17 0 -5 5 -7 10 -4 7 4 10 -19 9 -67 -2 -117 0 -148 12 -148 7 0 18 8 24 17
12 16 14 14 20 -18 4 -19 7 -60 8 -90 2 -41 6 -54 17 -54 8 0 17 11 18 24 2
13 12 26 22 28 11 3 20 16 22 31 4 32 24 40 31 12 9 -35 35 -24 42 18 4 20 10
47 16 60 5 13 9 40 9 62 0 21 11 70 25 108 14 38 25 79 25 91 0 12 6 34 14 49
7 15 17 43 21 62 10 47 34 104 41 98 5 -6 -26 -180 -46 -258 -5 -19 -14 -71
-20 -115 -6 -43 -14 -82 -18 -85 -18 -12 -34 -72 -30 -107 3 -21 1 -49 -4 -62
-5 -15 -4 -28 3 -37 8 -10 7 -31 -4 -81 -14 -70 -10 -220 6 -196 4 7 5 28 2
47 -4 19 -2 36 3 40 11 7 18 -16 27 -97 5 -36 12 -56 19 -54 12 4 21 90 12
114 -3 8 -8 79 -10 157 -3 136 -2 143 15 139 13 -4 19 0 19 11 0 9 6 16 13 16
15 0 35 75 40 145 3 39 3 39 14 15 6 -14 17 -31 25 -38 8 -6 14 -27 13 -47 -1
-39 11 -48 17 -12 3 17 7 12 17 -23 12 -41 14 -43 27 -25 20 27 17 79 -7 133
-26 55 -34 102 -20 102 6 0 11 7 11 15 0 8 5 15 11 15 5 0 8 -4 5 -9 -3 -4 8
-8 25 -7 23 1 29 5 25 19 -2 9 3 24 12 33 30 31 37 -13 37 -239 0 -118 3 -213
8 -210 8 5 9 -72 1 -104 -4 -13 -11 -20 -17 -16 -6 4 -8 -2 -5 -14 3 -11 2
-27 -3 -35 -4 -8 -11 -91 -14 -185 -5 -168 -20 -289 -70 -572 -14 -79 -23
-147 -19 -150 6 -6 11 -7 39 -10 8 0 15 -10 15 -21 0 -24 -13 -26 -30 -5 -11
14 -14 13 -25 -2 -10 -17 -35 -91 -35 -107 0 -4 5 -4 10 -1 6 3 10 14 10 24 0
10 7 24 15 31 19 16 19 11 0 -33 -8 -20 -23 -42 -33 -49 -23 -16 -73 -121 -61
-128 18 -12 6 -85 -17 -109 -13 -13 -21 -28 -18 -33 4 -6 2 -13 -3 -17 -6 -3
-12 -27 -15 -53 -5 -40 -3 -48 11 -49 12 0 11 -2 -4 -8 -32 -13 -90 12 -89 38
1 25 -5 27 -21 4 -12 -16 -25 -16 -181 -4 -269 21 -418 24 -579 11 -187 -15
-382 -36 -500 -55 -99 -16 -111 -17 -103 -10 16 16 395 75 483 75 40 0 85 22
85 41 0 5 -7 9 -16 9 -8 0 -12 4 -9 10 7 11 -58 40 -91 40 -12 0 -30 7 -38 16
-9 9 -37 17 -64 18 -26 2 -55 6 -65 11 -10 4 -61 5 -114 3 -52 -3 -89 -2 -82
2 6 5 -17 8 -52 8 -62 1 -119 -14 -119 -31 0 -5 -19 -7 -41 -6 -33 3 -45 -1
-59 -19 -11 -13 -25 -20 -33 -16 -8 3 -18 1 -21 -5 -4 -6 -13 -8 -21 -5 -7 3
-24 -5 -37 -18 -12 -12 -29 -22 -36 -20 -7 2 -15 -4 -18 -13 -5 -12 -10 -13
-20 -4 -13 11 -54 3 -65 -13 -7 -11 -67 -13 -97 -4 -18 6 -25 2 -40 -23 -9
-17 -22 -31 -28 -31 -7 0 -9 -11 -6 -26 3 -16 10 -23 18 -20 7 3 16 -3 19 -13
3 -10 23 -31 45 -45 22 -14 40 -30 40 -35 0 -13 -149 -43 -248 -48 -57 -4
-116 -1 -155 7 -61 13 -105 29 -79 30 6 0 12 7 12 15 0 8 15 21 34 29 47 19
54 35 25 57 -23 18 -24 18 -42 -4 l-19 -22 5 23 c7 32 -20 57 -78 73 -55 15
-58 15 -97 17 -18 1 -28 8 -28 17 0 8 -2 15 -4 15 -2 0 -12 3 -22 7 -12 4 -15
3 -10 -5 4 -7 4 -12 0 -12 -14 0 -94 44 -94 51 0 5 -6 6 -14 3 -8 -3 -25 1
-38 10 -27 17 -93 27 -196 29 -58 2 -78 -2 -92 -15 -11 -10 -24 -18 -30 -18
-5 0 -10 -7 -10 -14 0 -11 -15 -16 -52 -18 -39 -2 -53 -7 -53 -18 0 -8 6 -14
13 -12 8 1 11 -2 8 -7 -3 -5 -15 -7 -25 -4 -27 7 -35 -13 -13 -35 12 -12 41
-22 78 -26 61 -7 219 -34 243 -42 30 -10 3 -12 -42 -3 -168 31 -334 44 -572
43 -227 0 -265 -3 -415 -28 -91 -16 -180 -31 -199 -33 -31 -5 -33 -7 -28 -38
5 -30 1 -36 -34 -60 -32 -23 -42 -25 -54 -15 -12 10 -18 9 -30 -4 -25 -25 -26
-19 -3 24 15 27 25 37 32 30 17 -17 38 -12 32 8 -4 12 1 26 14 37 24 21 26 35
5 35 -8 0 -14 3 -14 8 6 36 -8 40 -41 12 -21 -19 -43 -24 -80 -22 -8 0 -19 -6
-23 -14 -11 -19 -43 -18 -51 2 -8 21 2 37 20 30 8 -3 24 -1 36 4 13 5 17 9 10
9 -7 1 -12 10 -10 20 2 11 -7 28 -19 38 -44 38 -47 97 -24 403 5 74 17 154 25
177 8 23 14 50 14 60 -1 10 4 45 11 78 12 57 26 106 77 260 13 39 26 88 30
110 4 22 15 47 26 56 10 9 18 21 18 26 0 6 11 45 25 87 14 42 25 87 25 99 0
13 9 40 20 62 11 22 20 45 20 51 0 31 171 382 249 509 23 39 91 135 152 215
60 80 124 165 142 190 18 25 53 65 80 89 26 24 47 49 47 55 0 5 40 51 89 100
153 156 199 207 216 247 11 22 28 42 45 49 16 6 39 23 52 37 28 30 198 116
328 167 119 45 335 100 463 117 68 9 103 18 117 31 11 10 20 17 20 14 0 -2 13
8 28 24 22 22 42 30 88 35 32 4 91 12 129 19 84 13 225 17 392 9z m2334 -428
c59 -21 100 -68 97 -112 -1 -24 -7 -33 -19 -33 -10 0 -19 -5 -21 -12 -5 -15
-121 -15 -161 1 -15 6 -32 10 -38 8 -6 -1 -16 6 -22 15 -9 13 -7 21 5 35 9 10
17 23 18 28 3 27 64 83 91 85 4 0 26 -7 50 -15z m-1536 -92 l-7 -28 26 24 c14
14 29 22 32 19 9 -10 -34 -48 -55 -48 -10 0 -24 -7 -31 -15 -7 -8 -18 -15 -24
-15 -6 0 -49 -22 -96 -50 -47 -27 -89 -50 -95 -50 -5 0 12 13 39 29 26 16 59
40 72 55 14 14 29 26 34 26 5 0 18 10 30 22 11 12 28 23 38 24 9 2 21 10 27
18 15 23 18 19 10 -11z m-729 -10 c-12 -12 -58 -15 -51 -3 3 5 18 10 32 10 15
0 23 -3 19 -7z m56 -65 c-20 -30 -20 -30 -27 -8 -6 18 -2 27 16 41 31 23 36 7
11 -33z m-62 9 c13 -4 12 -6 -1 -6 -28 -2 -42 -29 -49 -94 l-7 -62 -2 74 c-1
57 3 79 16 93 9 10 19 15 22 10 3 -5 13 -12 21 -15z m-3284 -50 c10 -9 -9 -35
-33 -46 -14 -6 -27 -10 -28 -9 -1 2 -7 13 -14 25 -9 18 -8 24 6 32 16 9 60 8
69 -2z m4536 1 c41 2 50 -2 64 -23 16 -24 16 -26 -12 -52 -18 -17 -24 -28 -16
-31 14 -4 17 -42 2 -42 -5 0 -13 6 -17 14 -4 8 -27 28 -50 45 -34 25 -43 28
-43 15 0 -12 -5 -10 -20 9 -16 21 -18 30 -10 52 9 23 14 26 33 20 12 -5 43 -8
69 -7z m442 -136 c22 -28 25 -35 33 -104 8 -73 -31 -108 -54 -48 -13 34 -61
66 -114 75 -42 7 -123 -11 -114 -25 4 -6 -1 -10 -10 -10 -18 0 -21 8 -29 72
-5 47 -5 47 19 38 28 -10 88 -3 125 17 14 7 35 13 47 13 12 0 25 5 28 10 8 14
44 -6 69 -38z m-1706 -2 c-18 -22 -37 -40 -41 -40 -14 0 5 43 27 62 39 32 48
19 14 -22z m-3028 3 c22 -16 23 -16 17 0 -4 11 -1 17 8 17 17 0 20 -27 5 -50
-6 -9 -5 -17 3 -22 9 -6 9 -8 0 -8 -7 0 -13 -11 -13 -25 0 -14 -8 -29 -19 -35
-11 -5 -22 -19 -26 -30 -3 -11 -18 -25 -33 -33 -25 -12 -29 -11 -53 15 -14 15
-39 29 -55 32 -16 2 -31 5 -34 5 -7 1 41 45 73 66 15 10 25 20 22 23 -9 9 17
32 35 32 10 0 20 7 24 15 7 19 16 19 46 -2z m2830 -1 c0 -4 -23 -30 -51 -57
-56 -54 -55 -44 1 23 34 40 50 51 50 34z m1540 -18 c0 -14 4 -23 10 -19 6 3
10 1 10 -4 0 -6 -11 -11 -25 -11 -25 0 -31 13 -19 44 9 25 24 19 24 -10z
m-1431 -18 c9 -10 7 -17 -5 -27 -14 -11 -18 -10 -30 5 -23 32 10 52 35 22z
m241 -71 c-7 -9 -15 -13 -19 -10 -3 3 1 10 9 15 21 14 24 12 10 -5z m-475 -31
c-9 -10 -28 -35 -42 -57 -26 -41 -40 -44 -28 -6 7 22 76 92 83 84 3 -2 -3 -12
-13 -21z m1419 -17 c-6 -16 -33 -31 -41 -23 -3 3 3 18 13 35 14 24 20 28 26
17 4 -8 5 -21 2 -29z m531 3 c10 -11 15 -26 11 -36 -6 -16 -10 -15 -33 8 -14
14 -22 31 -19 37 10 16 20 14 41 -9z m-555 -65 c0 -13 -9 -44 -19 -67 -11 -24
-24 -54 -30 -68 -10 -22 -10 -20 -5 15 12 74 12 105 2 105 -6 0 -1 9 12 20 30
26 40 25 40 -5z m-602 -39 c-7 -8 -17 -12 -22 -9 -4 3 -2 9 5 14 22 13 31 11
17 -5z m1105 -72 c-15 -12 -30 -20 -32 -18 -6 5 18 53 39 78 14 18 15 17 18
-9 3 -21 -4 -34 -25 -51z m-1573 22 c0 -3 -4 -8 -10 -11 -5 -3 -10 -1 -10 4 0
6 5 11 10 11 6 0 10 -2 10 -4z m161 -69 c-10 -9 -11 -8 -5 6 3 10 9 15 12 12
3 -3 0 -11 -7 -18z m1819 -2 c16 -19 25 -121 12 -129 -10 -6 -55 51 -55 71 0
7 -3 11 -5 8 -7 -6 -38 38 -34 48 1 5 -7 6 -18 2 -11 -4 -20 -2 -20 4 0 18
105 14 120 -4z m-292 -84 c-13 -18 -14 -16 -12 22 4 56 4 56 16 25 7 -20 6
-33 -4 -47z m-1308 -13 c0 -5 -4 -8 -10 -8 -5 0 -10 10 -10 23 0 18 2 19 10 7
5 -8 10 -18 10 -22z m1225 -28 c-5 -21 -3 -30 6 -30 7 0 9 -3 6 -7 -4 -3 -2
-12 4 -20 9 -10 8 -13 -5 -13 -9 0 -16 6 -16 14 0 8 -4 16 -8 18 -9 3 5 68 14
68 3 0 3 -13 -1 -30z m674 -49 c17 -18 31 -42 31 -54 0 -19 -1 -19 -12 -5 -13
17 -87 45 -148 58 -39 7 -53 -1 -64 -38 -6 -16 -3 -22 8 -22 9 0 16 -4 16 -10
0 -15 -22 -12 -47 5 -12 8 -28 12 -36 9 -18 -6 -30 54 -15 73 9 11 96 19 195
17 34 0 48 -7 72 -33z m-339 -33 c0 -13 -23 -5 -28 10 -2 7 2 10 12 6 9 -3 16
-11 16 -16z m78 -67 c3 -8 -1 -12 -9 -9 -7 2 -15 10 -17 17 -3 8 1 12 9 9 7
-2 15 -10 17 -17z m-758 -48 c0 -18 -4 -33 -10 -33 -5 0 -10 21 -10 48 0 34 3
43 10 32 5 -8 10 -30 10 -47z m1016 21 c36 -16 49 -48 45 -111 -3 -43 5 -53
26 -32 27 27 63 -48 63 -130 0 -37 -2 -42 -15 -31 -12 10 -15 9 -15 -4 0 -9 7
-19 15 -22 8 -4 15 -18 15 -33 0 -20 19 -45 82 -104 81 -77 83 -80 94 -143 6
-35 8 -64 5 -64 -2 0 -15 10 -28 22 -16 15 -23 33 -23 57 0 29 -8 42 -42 73
-24 21 -50 41 -60 43 -9 3 -23 23 -32 45 -8 21 -24 41 -36 45 -19 6 -27 34
-13 49 9 9 33 79 28 84 -8 8 -25 -10 -25 -26 0 -9 -5 -24 -10 -32 -7 -11 -8
-6 -4 16 4 21 1 36 -11 47 -9 9 -18 26 -20 38 -3 12 -14 32 -25 44 -11 12 -20
26 -20 32 0 7 -9 15 -20 18 -11 3 -20 13 -20 21 0 8 -6 17 -14 20 -8 3 -16 19
-20 35 -4 22 -11 30 -23 27 -25 -5 -42 -61 -42 -145 -1 -39 -5 -75 -11 -78 -5
-3 -10 -11 -10 -17 0 -6 8 -4 18 5 23 21 42 22 42 3 0 -8 6 -16 12 -18 15 -5
13 -118 -3 -216 -6 -37 -16 -123 -23 -192 -11 -118 -12 -125 -34 -128 -20 -3
-22 0 -16 22 4 19 2 28 -10 32 -9 3 -16 13 -16 21 0 8 -5 11 -10 8 -6 -3 -7
-17 -4 -30 4 -16 -1 -30 -14 -43 -20 -20 -42 -99 -42 -152 0 -16 -10 -59 -22
-95 -15 -49 -25 -65 -37 -63 -15 3 -39 -34 -47 -72 -13 -68 -37 -150 -45 -150
-4 0 -6 15 -4 33 l5 32 -16 -35 c-9 -19 -26 -44 -38 -55 -12 -11 -30 -45 -40
-75 -10 -30 -29 -75 -43 -100 -14 -25 -37 -65 -50 -90 -33 -59 -50 -76 -95
-94 l-36 -16 24 43 c14 23 32 53 42 67 9 13 11 21 5 17 -16 -10 -6 24 12 38 7
6 12 12 12 15 0 15 15 50 22 50 8 0 33 45 37 70 2 8 -2 20 -7 26 -7 8 -6 14 3
17 10 4 11 7 1 18 -7 7 -13 22 -13 33 0 18 -1 18 -18 3 -10 -10 -26 -17 -36
-17 -15 0 -15 3 3 38 24 46 51 163 51 219 0 23 4 64 9 90 16 80 21 139 10 122
-7 -11 -9 -9 -9 8 0 13 7 23 17 25 14 2 18 15 20 53 3 62 7 82 17 92 4 4 5
-13 1 -39 -4 -25 -3 -54 2 -63 6 -9 6 -34 2 -58 -5 -23 -15 -76 -23 -117 -18
-93 -23 -213 -9 -217 11 -4 48 74 68 146 20 69 29 151 17 151 -6 0 -10 24 -9
58 1 72 -21 204 -36 217 -14 12 -19 105 -6 105 9 0 13 -24 11 -67 -1 -13 3
-23 8 -23 6 0 10 -6 10 -13 0 -7 9 -20 20 -30 20 -16 20 -16 20 28 0 25 -3 45
-7 45 -5 0 -8 26 -9 58 -1 31 -6 107 -12 167 -7 61 -14 166 -17 233 -3 68 -7
128 -11 133 -3 5 6 9 19 9 15 0 28 -9 37 -25 10 -18 16 -22 21 -13 12 19 25 0
38 -57 14 -57 36 -96 53 -92 14 2 48 -65 54 -105 2 -16 10 -35 19 -44 8 -8 15
-25 15 -36 0 -45 13 -5 16 47 3 43 0 55 -11 55 -11 0 -15 12 -15 45 0 47 12
58 30 26 8 -16 29 -130 30 -163 0 -5 6 -8 14 -8 19 0 31 57 16 75 -9 11 -7 37
10 117 12 57 24 117 27 133 8 54 8 54 60 43 26 -5 62 -16 79 -24z m-279 -24
c-17 -29 -28 -25 -25 9 2 25 5 28 20 20 15 -8 16 -13 5 -29z m-617 -124 c0 -3
-4 -8 -10 -11 -5 -3 -10 -1 -10 4 0 6 5 11 10 11 6 0 10 -2 10 -4z m410 -381
c0 -8 -4 -15 -10 -15 -5 0 -10 7 -10 15 0 8 5 15 10 15 6 0 10 -7 10 -15z
m-79 -152 c-9 -15 -10 -11 -11 19 0 54 14 83 18 36 2 -21 -1 -46 -7 -55z m929
-109 c0 -21 -19 -45 -21 -27 -1 4 -3 21 -5 37 -2 16 -6 36 -9 45 -3 9 4 5 15
-8 11 -13 20 -34 20 -47z m-943 -16 c-3 -8 -6 -5 -6 6 -1 11 2 17 5 13 3 -3 4
-12 1 -19z m363 -75 c-4 -56 -5 -57 -8 -14 -3 38 2 71 10 71 2 0 1 -26 -2 -57z
m40 0 c-11 -17 -11 -17 -6 0 3 10 7 26 7 35 1 15 2 15 6 0 2 -10 -1 -25 -7
-35z m120 -8 c0 -25 -4 -45 -9 -45 -12 0 -23 48 -16 71 11 34 25 20 25 -26z
m-6055 -45 c3 -5 1 -10 -4 -10 -6 0 -11 5 -11 10 0 6 2 10 4 10 3 0 8 -4 11
-10z m5925 -89 c0 -15 -4 -31 -9 -36 -5 -6 -14 -27 -21 -47 -6 -21 -16 -38
-21 -38 -5 0 -9 -8 -9 -17 -1 -19 -22 -53 -34 -53 -12 0 -6 22 12 45 10 13 29
59 43 103 24 79 39 96 39 43z m105 -38 c-3 -16 -10 -32 -15 -37 -5 -5 -4 7 2
27 13 43 23 50 13 10z m-29 -90 c-8 -15 -15 -22 -16 -15 0 17 20 55 27 49 2
-3 -2 -18 -11 -34z m-71 -140 c-2 -25 -8 -50 -14 -56 -10 -10 -9 15 3 71 11
46 16 39 11 -15z m-6549 -115 c-11 -16 -11 -24 2 -53 9 -19 19 -32 24 -29 4 3
8 -2 8 -10 0 -21 -17 -20 -28 0 -8 15 -12 14 -32 -6 -15 -15 -25 -19 -33 -11
-6 6 -16 7 -27 1 -11 -6 -25 -4 -41 4 -14 7 -31 10 -38 8 -9 -3 -11 0 -6 8 6
10 3 12 -10 7 -20 -8 -46 19 -38 40 8 20 92 63 137 69 23 4 48 10 56 15 24 13
43 -19 26 -43z m6284 23 c0 -5 -7 -14 -15 -21 -16 -14 -18 -10 -9 14 6 17 24
22 24 7z m-5120 -158 c0 -7 5 -13 10 -13 6 0 9 -13 8 -29 -1 -16 3 -36 10 -44
9 -10 9 -22 2 -43 -5 -16 -9 -42 -7 -59 1 -24 -2 -29 -15 -27 -10 1 -23 -6
-30 -18 -7 -11 -19 -20 -27 -20 -10 0 -11 3 -3 13 8 10 6 16 -9 26 -12 7 -18
15 -15 18 3 4 -3 13 -15 21 -17 11 -20 21 -15 47 4 20 2 36 -5 40 -7 5 -2 12
13 19 12 6 23 18 23 26 0 8 9 16 20 18 41 7 48 11 36 25 -8 10 -7 14 4 14 8 0
15 -6 15 -14z m5666 -188 c-4 -14 -11 -25 -16 -25 -13 0 -13 12 1 47 13 32 24
15 15 -22z m-882 -179 c-3 -8 -13 -17 -22 -21 -13 -5 -13 -2 3 15 21 24 26 25
19 6z m-4458 -38 c4 -6 3 -8 -4 -4 -6 3 -13 -2 -15 -11 -4 -14 -5 -13 -6 5 -1
23 13 30 25 10z m3963 -28 c63 -15 102 -30 117 -45 30 -31 47 -93 53 -207 2
-30 25 -20 64 27 28 33 45 45 65 45 38 0 53 -17 42 -45 -10 -27 -84 -126 -127
-171 -24 -24 -31 -43 -37 -92 -6 -53 -4 -62 11 -70 10 -5 75 -7 146 -5 110 4
127 2 127 -11 0 -9 5 -16 10 -16 16 0 11 48 -6 58 -11 6 -13 11 -5 16 6 4 11
3 11 -2 0 -14 43 -2 55 15 6 7 25 15 44 18 19 2 39 9 44 14 6 6 16 11 22 11 5
0 3 -5 -5 -11 -11 -8 -7 -9 17 -4 22 4 40 1 57 -10 33 -22 60 -13 51 17 -5 17
-4 19 3 9 21 -29 39 -446 20 -457 -5 -3 -6 -19 -3 -35 4 -16 3 -34 -1 -41 -4
-7 -9 -23 -10 -37 -2 -13 -7 -27 -13 -30 -5 -3 -12 -23 -16 -44 -7 -34 -25
-62 -25 -38 0 6 -4 11 -8 11 -5 0 -6 -15 -4 -32 3 -18 1 -29 -4 -25 -4 4 -10
20 -12 35 -4 36 -24 56 -22 22 4 -42 1 -45 -16 -21 -15 21 -18 21 -26 7 -7
-12 -14 -14 -27 -6 -17 8 -19 6 -17 -25 1 -19 -3 -36 -8 -38 -5 -2 -9 -24 -9
-50 0 -26 -4 -47 -9 -47 -4 0 -8 5 -8 12 0 6 -2 9 -5 6 -3 -3 -1 -18 5 -34 9
-24 8 -31 -6 -41 -13 -9 -14 -13 -4 -13 11 0 11 -3 2 -12 -16 -16 -16 -79 1
-73 17 7 42 -52 29 -68 -9 -11 -16 -48 -13 -71 1 -5 8 -3 16 4 9 8 13 21 10
34 -6 21 -6 21 9 2 9 -11 16 -14 16 -7 0 7 4 10 10 6 5 -3 7 -12 3 -20 -3 -8
0 -15 6 -15 6 0 11 -7 11 -16 0 -10 6 -14 14 -11 8 3 17 -1 20 -9 4 -9 -1 -14
-14 -14 -11 0 -20 -5 -20 -11 0 -5 -4 -8 -10 -4 -5 3 -7 13 -4 23 4 12 -1 10
-15 -7 -12 -13 -21 -20 -21 -17 0 4 -5 4 -10 1 -6 -4 -5 -12 4 -21 17 -16 30
-19 21 -4 -3 6 -2 10 4 10 5 0 9 -12 8 -27 -2 -22 2 -28 18 -28 15 0 19 6 17
25 -1 16 5 30 18 38 21 13 25 6 10 -18 -6 -9 -5 -17 3 -22 9 -6 7 -11 -6 -19
-9 -5 -26 -20 -37 -31 -11 -12 -20 -18 -20 -14 0 5 -7 3 -15 -4 -18 -15 -10
-31 10 -23 11 3 15 -2 15 -17 0 -19 -4 -21 -26 -16 -20 5 -24 4 -17 -6 4 -7 8
-22 8 -33 0 -11 6 -19 13 -17 7 1 23 -4 35 -13 17 -12 18 -15 5 -15 -9 0 -31
-19 -49 -41 -28 -36 -30 -41 -12 -35 12 4 24 2 28 -4 3 -5 2 -10 -4 -10 -5 0
-22 -5 -36 -10 -21 -8 -25 -13 -16 -24 9 -11 6 -13 -14 -11 -19 3 -26 -2 -31
-20 -3 -13 -12 -26 -20 -29 -8 -3 -14 -15 -14 -26 0 -20 -21 -50 -34 -50 -3 0
-6 7 -6 15 0 8 5 15 10 15 6 0 10 7 10 15 0 25 -17 17 -30 -16 -11 -26 -11
-32 1 -40 11 -7 11 -9 -3 -9 -10 0 -19 6 -19 13 -1 6 -2 19 -3 27 0 8 6 29 15
46 20 37 15 91 -7 73 -8 -6 -11 -15 -9 -20 3 -4 -3 -12 -12 -18 -10 -6 -14
-11 -9 -11 5 0 3 -7 -4 -15 -10 -13 -10 -19 2 -33 8 -9 15 -35 15 -57 l1 -40
-12 48 -11 48 -22 -28 c-21 -28 -21 -28 -38 -8 -11 14 -18 16 -21 8 -3 -7 -12
-13 -20 -13 -8 0 -14 -7 -14 -15 0 -18 11 -19 29 -2 11 10 11 8 2 -11 -7 -13
-17 -20 -24 -15 -6 4 -2 -6 10 -22 l21 -29 -22 -13 c-11 -7 -33 -18 -49 -25
-15 -7 -33 -25 -40 -40 -8 -20 -17 -26 -29 -22 -10 3 -18 1 -18 -5 0 -20 -28
-11 -44 14 -11 16 -15 34 -10 48 5 18 4 20 -7 10 -7 -7 -20 -13 -29 -13 -22 0
-66 -38 -55 -48 4 -4 10 -1 12 6 9 23 23 12 23 -18 0 -20 -5 -30 -15 -30 -12
0 -14 -7 -9 -27 4 -16 12 -31 18 -35 6 -4 -7 -6 -28 -5 -24 1 -41 -3 -43 -11
-3 -7 1 -10 11 -6 11 4 16 0 16 -12 1 -18 2 -18 16 1 16 20 16 20 9 -2 -7 -27
0 -29 22 -7 9 8 21 13 29 10 9 -4 11 4 7 28 -4 28 -2 34 18 40 23 6 23 7 -11
26 -19 10 -29 19 -22 20 6 0 12 7 12 15 0 21 8 19 34 -12 19 -22 23 -35 19
-68 -3 -30 -2 -36 6 -25 9 12 11 11 11 -7 0 -15 -5 -21 -14 -17 -9 3 -23 -8
-38 -29 -12 -18 -28 -32 -35 -30 -6 2 -14 -1 -18 -6 -4 -7 4 -11 19 -11 14 0
26 -4 26 -10 0 -5 -7 -10 -15 -10 -8 0 -16 -8 -16 -17 -1 -17 -2 -17 -6 0 -5
20 -5 20 -38 5 -14 -6 -25 -19 -25 -29 0 -10 -12 -22 -27 -27 -27 -10 -28 -11
-5 -17 30 -10 28 -25 -3 -25 -20 0 -25 5 -25 27 l0 27 -20 -22 c-11 -12 -17
-28 -14 -37 5 -11 2 -14 -10 -9 -24 9 -52 -4 -38 -18 9 -9 1 -16 -28 -29 -28
-13 -40 -24 -40 -39 0 -27 8 -25 20 5 5 14 17 25 25 25 9 0 14 -4 10 -9 -3 -5
2 -11 11 -13 15 -3 23 -30 27 -85 0 -7 4 -13 9 -13 12 0 9 -12 -7 -34 -12 -16
-18 -17 -27 -8 -17 17 -28 15 -21 -4 4 -12 2 -15 -8 -12 -8 3 -13 12 -11 22 2
9 -4 16 -12 16 -8 0 -18 9 -21 20 -7 21 -25 28 -25 10 0 -5 -4 -10 -8 -10 -5
0 -7 14 -4 30 3 23 0 30 -12 30 -9 0 -16 -4 -16 -10 0 -5 -9 -10 -19 -10 -12
0 -23 -11 -29 -27 -6 -16 -11 -22 -11 -15 -1 6 -6 12 -12 12 -6 0 -9 -7 -5
-15 3 -9 0 -15 -9 -15 -8 0 -15 -4 -15 -10 0 -5 7 -10 15 -10 9 0 12 -6 9 -17
-5 -17 -5 -17 9 -1 17 22 31 23 23 3 -3 -10 1 -15 13 -15 10 0 24 -7 31 -15 7
-8 9 -15 5 -15 -4 0 -2 -6 4 -14 8 -10 9 -16 1 -21 -13 -8 -32 4 -25 16 4 5 1
9 -4 9 -6 0 -11 -7 -11 -15 0 -15 -16 -20 -55 -17 -19 2 -19 1 3 -16 l23 -18
-28 -2 c-32 -3 -66 -32 -45 -39 25 -9 11 -21 -23 -18 -26 1 -39 -3 -45 -16
-14 -25 -13 -29 8 -30 15 0 15 -1 -2 -8 -15 -6 -16 -10 -7 -15 9 -6 7 -14 -10
-32 -12 -13 -28 -24 -35 -24 -7 0 -33 -11 -56 -24 -36 -20 -83 -37 -110 -40
-3 -1 -10 -4 -14 -8 -4 -5 -16 -8 -27 -8 -12 0 -17 -5 -14 -14 3 -8 -1 -20 -9
-27 -8 -7 -13 -18 -10 -26 3 -7 -1 -13 -9 -13 -8 0 -12 -6 -9 -14 3 -8 -5 -18
-23 -25 -15 -6 -48 -22 -72 -36 -24 -14 -58 -25 -76 -25 -25 0 -35 -7 -55 -40
-14 -22 -32 -39 -40 -38 -8 0 -28 -4 -44 -11 -16 -6 -37 -9 -47 -6 -11 4 -19
2 -19 -4 0 -13 -53 -7 -58 7 -1 5 2 13 7 17 6 3 11 13 11 21 0 21 -99 13 -112
-10 -5 -9 -14 -16 -20 -16 -6 0 -19 -6 -27 -14 -9 -8 -43 -17 -76 -19 -33 -3
-75 -10 -94 -16 -38 -12 -105 -20 -198 -26 -54 -3 -63 -1 -63 14 0 10 -11 23
-24 30 -20 11 -36 10 -100 -8 -42 -12 -86 -21 -97 -21 -11 0 -29 -10 -39 -22
-13 -16 -30 -23 -57 -24 -21 0 -58 -2 -83 -4 -25 -2 -71 0 -103 4 -38 6 -62 5
-71 -3 -10 -8 -17 -6 -32 10 -13 15 -26 19 -45 15 -19 -4 -31 1 -45 18 -10 13
-37 35 -59 49 -22 14 -71 55 -109 91 -39 36 -82 68 -99 72 -34 7 -172 136
-225 209 -19 28 -50 66 -68 85 -17 19 -48 60 -67 90 -20 30 -57 78 -84 106
-65 71 -178 275 -199 361 -16 70 -25 124 -49 301 -7 56 -19 110 -26 118 -9 11
-9 18 -1 26 7 7 12 21 12 31 0 14 -4 17 -17 12 -65 -26 -72 -25 -143 20 -110
72 -137 118 -200 353 -24 86 -23 132 0 247 6 28 15 94 20 149 5 54 16 126 24
160 8 33 20 112 25 175 7 87 14 120 29 140 11 15 24 49 30 77 6 27 20 71 31
98 33 75 27 86 -21 41 -46 -44 -35 -24 24 42 21 24 38 47 38 52 0 5 3 17 6 25
5 12 2 15 -11 10 -15 -6 -15 -5 -4 15 8 11 17 21 21 21 17 0 39 97 46 211 7
99 12 131 28 152 61 84 385 128 714 97 149 -14 293 -30 313 -36 26 -8 21 -24
-8 -24 -27 0 -32 -9 -13 -28 9 -9 7 -13 -8 -18 -10 -3 -32 -12 -49 -19 -16 -7
-65 -23 -109 -35 -145 -40 -255 -94 -361 -177 -53 -41 -55 -44 -55 -59 0 -14
14 -15 93 -12 86 3 97 6 132 32 22 17 47 31 56 31 9 1 38 20 64 43 26 23 56
42 66 42 11 0 19 6 19 13 0 8 3 7 9 -3 6 -8 7 -27 4 -42 -7 -33 38 -132 65
-143 61 -26 190 -21 238 10 11 7 26 31 33 53 14 40 34 58 52 46 13 -7 11 -54
-2 -54 -5 0 -8 -4 -4 -9 3 -5 0 -13 -7 -17 -8 -5 -6 -10 8 -15 35 -14 54 -10
54 10 0 12 7 19 18 19 9 0 29 4 44 10 28 11 29 28 5 60 -15 19 -3 24 27 13 35
-14 54 -5 61 30 4 16 11 31 16 34 15 10 10 41 -8 57 -21 17 -129 61 -188 76
-22 6 -59 15 -81 21 -23 6 -53 11 -67 11 -39 0 -82 19 -70 31 19 19 370 -68
431 -108 42 -27 55 -75 41 -157 -6 -39 -19 -93 -29 -121 -10 -27 -20 -63 -23
-80 -3 -16 -8 -39 -12 -50 -3 -11 19 32 50 95 31 63 68 140 83 170 18 35 39
61 61 74 68 39 256 30 296 -14 24 -26 94 -192 107 -253 10 -49 85 -207 97
-207 3 0 6 26 5 58 -1 39 -11 82 -33 137 -41 103 -71 218 -71 270 0 87 43 112
325 185 152 39 322 67 605 100 41 5 167 7 280 6 174 -2 219 -6 299 -26z m551
-35 c0 -8 -4 -15 -10 -15 -5 0 -10 7 -10 15 0 8 5 15 10 15 6 0 10 -7 10 -15z
m-4304 -152 c-11 -11 -17 4 -9 23 7 18 8 18 11 1 2 -10 1 -21 -2 -24z m-206
-29 c0 -17 6 -24 19 -24 14 0 18 -5 14 -20 -3 -11 -12 -20 -19 -20 -8 0 -14
-10 -14 -23 0 -13 -9 -32 -20 -42 -19 -18 -20 -17 -20 5 0 12 8 29 18 37 12
10 13 16 5 19 -18 8 -28 71 -13 89 16 19 30 10 30 -21z m1430 -19 c7 -9 10
-18 7 -21 -7 -8 -47 14 -47 26 0 15 26 12 40 -5z m-75 -26 c-4 -5 -14 -9 -24
-9 -9 0 -22 -5 -28 -11 -8 -8 -13 -8 -18 0 -4 7 7 17 27 25 33 14 53 12 43 -5z
m-1222 -64 c-3 -9 -8 -14 -10 -11 -3 3 -2 9 2 15 9 16 15 13 8 -4z m-27 -75
c-17 -56 -81 -166 -101 -174 -22 -8 -19 1 24 63 21 31 42 68 46 81 10 34 36
83 40 78 3 -2 -2 -24 -9 -48z m1387 6 c8 -20 -21 -76 -39 -77 -8 -1 -20 -2
-26 -3 -7 -1 -12 5 -10 13 4 19 -8 51 -19 51 -5 0 -9 -6 -9 -14 0 -20 -19 -31
-32 -18 -20 20 11 42 58 42 23 0 46 5 49 10 9 14 22 12 28 -4z m-1320 -322
c-21 -33 -29 -15 -12 26 11 22 15 26 22 15 5 -9 1 -25 -10 -41z m9 -36 c2 -7
-9 -25 -24 -39 -26 -26 -27 -26 -30 -5 -2 13 -10 21 -22 21 -11 0 -21 6 -24
14 -3 10 0 12 11 8 8 -3 28 -2 44 3 39 12 40 12 45 -2z m4778 -576 c8 -19 8
-28 -1 -36 -9 -8 -10 -8 -4 3 6 10 2 12 -14 6 -18 -5 -21 -2 -21 23 0 36 24
38 40 4z m360 -144 c0 -6 10 -22 22 -35 28 -30 78 -31 85 -3 3 11 13 20 23 20
10 0 21 6 23 13 3 6 6 -12 6 -41 1 -79 -50 -173 -186 -342 -138 -171 -165
-195 -261 -222 -123 -34 -136 -33 -212 17 -62 42 -68 49 -78 96 -7 28 -12 59
-12 70 0 19 3 27 34 86 9 17 16 40 16 51 0 22 24 47 39 38 5 -3 12 2 15 11 6
14 9 15 16 4 6 -11 12 -7 23 16 12 22 13 33 5 41 -12 12 -7 15 40 25 17 4 28
-3 50 -34 15 -21 33 -39 40 -39 17 0 15 9 -8 52 -20 37 -18 72 4 65 6 -2 31 6
56 19 25 13 60 24 79 24 19 0 42 7 51 15 21 19 102 63 118 64 6 1 12 -4 12
-11z m-780 -8 c0 -5 -2 -10 -4 -10 -3 0 -8 5 -11 10 -3 6 -1 10 4 10 6 0 11
-4 11 -10z m470 -11 c0 -4 -6 -10 -12 -12 -10 -4 -10 -8 1 -15 7 -5 10 -15 7
-21 -14 -21 -26 -11 -26 22 0 23 5 34 15 34 8 0 15 -4 15 -8z m-350 -224 c0
-8 -2 -15 -4 -15 -2 0 -6 7 -10 15 -3 8 -1 15 4 15 6 0 10 -7 10 -15z m-50
-64 c0 -5 3 -17 6 -25 5 -12 2 -15 -10 -10 -17 7 -22 44 -6 44 6 0 10 -4 10
-9z m81 -38 c-12 -20 -14 -14 -5 12 4 9 9 14 11 11 3 -2 0 -13 -6 -23z m-81
-27 c0 -3 -4 -8 -10 -11 -5 -3 -10 -1 -10 4 0 6 5 11 10 11 6 0 10 -2 10 -4z
m4 -101 c3 -9 0 -15 -9 -15 -8 0 -15 7 -15 15 0 8 4 15 9 15 5 0 11 -7 15 -15z
m-64 -145 c0 -5 -4 -10 -9 -10 -6 0 -13 5 -16 10 -3 6 1 10 9 10 9 0 16 -4 16
-10z m-230 -104 c0 -3 -4 -8 -10 -11 -5 -3 -10 -1 -10 4 0 6 5 11 10 11 6 0
10 -2 10 -4z m-66 -51 c-4 -8 -8 -15 -10 -15 -2 0 -4 7 -4 15 0 8 4 15 10 15
5 0 7 -7 4 -15z m-158 -201 c-5 -14 -9 -15 -19 -5 -9 9 -9 14 3 21 18 11 24 6
16 -16z m-38 -112 c2 -7 -3 -12 -12 -12 -9 0 -16 7 -16 16 0 17 22 14 28 -4z
m-28 -64 c0 -7 -5 -20 -10 -28 -8 -12 -10 -9 -10 13 0 15 5 27 10 27 6 0 10
-6 10 -12z m-75 -19 c11 -16 1 -19 -13 -3 -7 8 -8 14 -3 14 5 0 13 -5 16 -11z
m-105 -169 c0 -13 -11 -13 -30 0 -12 8 -11 10 8 10 12 0 22 -4 22 -10z m-180
-124 c0 -3 -4 -8 -10 -11 -5 -3 -10 -1 -10 4 0 6 5 11 10 11 6 0 10 -2 10 -4z
m50 -32 c0 -8 -5 -14 -11 -14 -5 0 -7 5 -4 10 9 15 -4 12 -22 -5 -8 -8 -19
-12 -25 -9 -5 4 3 15 18 25 29 19 44 17 44 -7z m-15 -34 c-3 -5 -12 -10 -18
-10 -7 0 -6 4 3 10 19 12 23 12 15 0z m-4386 -225 c-5 -35 -15 -78 -24 -94 -8
-17 -15 -41 -15 -55 0 -34 -32 -51 -62 -34 -13 7 -26 12 -30 13 -19 1 -18 21
6 98 20 64 32 87 51 97 14 7 25 17 25 22 0 5 4 7 9 3 5 -3 12 -1 16 5 3 5 12
10 19 10 9 0 11 -15 5 -65z m5058 -12 c0 -20 -15 -43 -28 -43 -5 0 -6 7 -3 15
5 11 2 13 -10 9 -9 -3 -16 -1 -16 5 0 7 10 16 23 21 31 13 34 12 34 -7z m-64
-111 c-20 -21 -28 -20 -20 3 4 8 13 15 22 15 13 0 12 -3 -2 -18z m-43 -52 c0
-5 -4 -10 -10 -10 -5 0 -10 5 -10 10 0 6 5 10 10 10 6 0 10 -4 10 -10z m-3529
-197 c0 -11 3 -13 6 -5 2 6 9 12 15 12 6 0 8 -6 5 -14 -4 -9 0 -12 11 -9 10 2
22 -5 30 -17 25 -40 -46 -105 -98 -89 l-25 7 23 7 c34 11 21 31 -19 27 -41 -5
-48 -10 -29 -22 13 -8 12 -10 -2 -10 -27 0 -23 37 5 44 12 3 27 14 34 25 10
16 9 18 -8 14 -10 -3 -19 0 -19 6 0 6 9 11 20 11 11 0 23 7 26 15 8 21 24 19
25 -2z m-71 -133 c0 -5 -4 -10 -10 -10 -5 0 -10 5 -10 10 0 6 5 10 10 10 6 0
10 -4 10 -10z m-42 -35 c18 -40 15 -58 -8 -52 -17 4 -20 2 -15 -13 6 -18 -18
-31 -42 -23 -28 10 -1 93 30 93 10 0 15 5 12 10 -3 6 -2 10 3 10 5 0 14 -11
20 -25z m3905 -135 c-7 -25 -15 -58 -18 -73 -3 -17 -10 -25 -17 -21 -7 5 -9 2
-5 -9 3 -9 2 -19 -3 -22 -11 -7 -12 -6 -15 56 -1 25 -5 57 -8 71 -9 32 13 53
45 42 20 -6 21 -5 10 9 -11 13 -11 19 0 31 11 12 14 10 18 -13 3 -14 0 -46 -7
-71z m-848 -99 c-3 -6 -11 -11 -17 -11 -6 0 -6 6 2 15 14 17 26 13 15 -4z m29
-6 c-4 -8 -10 -15 -15 -15 -4 0 -6 7 -3 15 4 8 10 15 15 15 4 0 6 -7 3 -15z
m-474 -635 c0 -5 -4 -10 -10 -10 -5 0 -10 5 -10 10 0 6 5 10 10 10 6 0 10 -4
10 -10z m-13 -77 c-8 -7 -37 9 -31 19 3 5 12 4 20 -3 8 -6 13 -14 11 -16z
m2065 -62 c38 -15 119 -101 94 -101 -7 0 -51 25 -93 54 -58 39 -59 69 -1 47z
m-2800 -103 c-7 -7 -12 -8 -12 -2 0 14 12 26 19 19 2 -3 -1 -11 -7 -17z m2814
-77 c28 5 44 -3 44 -21 0 -21 -15 -27 -25 -10 -4 6 -15 6 -30 0 -17 -6 -25 -6
-25 1 0 6 -8 8 -17 5 -10 -3 -24 -2 -32 3 -19 12 -4 33 19 26 10 -3 21 -1 25
5 3 5 1 10 -5 10 -6 0 -8 5 -5 10 4 7 14 3 25 -10 10 -11 22 -20 26 -19z
m1501 -10 c2 -10 16 -24 29 -31 13 -8 25 -17 25 -22 1 -4 2 -14 3 -20 1 -7 -2
-19 -7 -25 -5 -7 -6 -24 -3 -37 4 -16 1 -28 -7 -33 -8 -4 -17 -19 -20 -33 -3
-14 -11 -39 -18 -56 -10 -26 -10 -36 4 -62 15 -30 14 -32 -3 -32 -10 0 -22 5
-26 11 -10 17 -85 49 -115 49 -31 0 -74 43 -66 64 4 9 11 16 16 16 5 0 12 11
15 25 3 13 19 36 34 50 15 14 23 25 18 25 -5 0 1 8 12 19 12 10 19 21 15 25
-3 3 0 6 8 6 12 0 12 2 0 9 -11 7 -9 10 9 16 29 9 60 36 54 47 -3 4 0 8 6 8 7
0 14 -8 17 -19z m-4650 -27 c-3 -3 -12 -4 -19 -1 -8 3 -5 6 6 6 11 1 17 -2 13
-5z m3068 -28 c11 -7 34 -17 52 -20 17 -4 36 -13 41 -19 13 -16 -15 -87 -34
-87 -7 0 -18 -10 -25 -21 -10 -20 -17 -21 -71 -15 -72 7 -80 12 -69 34 16 30
24 57 22 74 -3 23 30 67 49 68 9 0 24 -6 35 -14z m-3075 -16 c0 -5 -11 -10
-25 -10 -14 0 -25 5 -25 10 0 6 11 10 25 10 14 0 25 -4 25 -10z m2100 -480 c0
-5 -2 -10 -4 -10 -3 0 -8 5 -11 10 -3 6 -1 10 4 10 6 0 11 -4 11 -10z m20 -27
c0 -10 -20 -40 -20 -31 0 3 -3 13 -6 22 -4 11 -1 16 10 16 9 0 16 -3 16 -7z
m-81 -134 c-10 -6 -11 -9 -1 -9 19 0 14 -28 -7 -40 -22 -11 -30 -4 -26 23 5
25 25 48 37 41 6 -4 5 -10 -3 -15z m-49 1 c0 -5 -5 -10 -11 -10 -5 0 -7 5 -4
10 3 6 8 10 11 10 2 0 4 -4 4 -10z m511 -162 c-8 -23 -31 -37 -31 -19 0 6 5
11 11 11 6 0 9 6 6 14 -6 16 2 28 14 20 4 -2 5 -14 0 -26z"/>
<path d="M6256 9537 c3 -10 9 -15 12 -12 3 3 0 11 -7 18 -10 9 -11 8 -5 -6z"/>
<path d="M4890 9409 c0 -6 -9 -8 -20 -4 -15 5 -20 2 -20 -12 0 -17 20 -56 20
-40 0 5 7 1 16 -7 17 -18 36 -20 62 -8 81 40 96 49 100 61 4 11 -1 12 -19 7
-59 -18 -72 -19 -81 -2 -10 18 -58 22 -58 5z"/>
<path d="M5258 9382 c-16 -9 -28 -22 -28 -29 0 -17 69 17 70 35 0 16 -9 15
-42 -6z"/>
<path d="M4658 9356 c-11 -8 -15 -21 -12 -37 l5 -24 -11 25 c-9 20 -13 22 -20
10 -27 -42 4 -81 48 -61 24 11 25 14 9 22 -25 15 -21 29 9 29 21 0 25 -4 21
-20 -5 -19 -1 -20 50 -16 70 6 58 -7 -22 -23 -33 -7 -66 -15 -72 -17 -16 -4
-17 -25 -2 -21 6 1 14 -4 16 -10 3 -8 -3 -13 -14 -13 -14 0 -11 -5 11 -19 28
-19 29 -19 52 2 13 12 40 35 59 52 19 16 35 35 35 42 0 6 9 15 20 18 19 6 19
7 2 30 -9 14 -24 25 -34 25 -9 0 -19 6 -22 13 -3 6 -4 3 -3 -8 2 -13 9 -19 22
-17 20 2 20 2 0 -9 -11 -7 -23 -17 -26 -22 -10 -15 -39 0 -39 19 0 10 -5 14
-15 10 -9 -3 -15 0 -15 8 0 8 -7 17 -16 20 -19 7 -16 8 -36 -8z"/>
<path d="M4927 9263 c-10 -9 -9 -23 2 -23 5 0 11 7 15 15 5 15 -5 20 -17 8z"/>
<path d="M4875 9230 c-3 -5 1 -10 9 -10 8 0 18 5 21 10 3 6 -1 10 -9 10 -8 0
-18 -4 -21 -10z"/>
<path d="M4515 9203 c13 -29 11 -68 -2 -66 -9 2 -10 -4 -4 -20 4 -12 6 -27 4
-34 -2 -6 0 -14 6 -17 17 -11 33 117 17 142 -12 19 -29 14 -21 -5z"/>
<path d="M4745 9180 c-3 -5 -1 -10 4 -10 6 0 11 5 11 10 0 6 -2 10 -4 10 -3 0
-8 -4 -11 -10z"/>
<path d="M4620 9103 c0 -23 15 -39 24 -25 3 5 -1 18 -9 28 -14 18 -14 18 -15
-3z"/>
<path d="M4817 9074 c-15 -14 -27 -21 -27 -17 -1 4 -7 -3 -15 -17 -8 -14 -14
-19 -15 -12 0 8 -13 12 -38 10 -34 -3 -41 -8 -57 -41 -17 -35 -19 -36 -37 -21
-20 19 -23 7 -7 -30 13 -28 25 -24 93 31 33 28 41 30 50 18 9 -13 18 -9 54 24
40 37 52 64 34 75 -5 3 -20 -6 -35 -20z"/>
<path d="M4550 9046 c0 -30 2 -33 25 -28 36 6 42 22 15 44 -32 26 -40 23 -40
-16z"/>
<path d="M4470 8985 c0 -14 40 -38 49 -29 6 5 -30 44 -41 44 -4 0 -8 -7 -8
-15z"/>
<path d="M3991 8961 c-17 -16 -31 -34 -31 -40 0 -15 79 41 80 57 0 20 -16 14
-49 -17z"/>
<path d="M4813 8939 c-18 -16 -33 -39 -33 -50 0 -24 11 -24 33 1 9 11 24 20
32 20 8 0 15 6 15 14 0 8 3 21 6 30 10 26 -18 18 -53 -15z"/>
<path d="M4525 8930 c-3 -5 1 -10 9 -10 9 0 16 5 16 10 0 6 -4 10 -9 10 -6 0
-13 -4 -16 -10z"/>
<path d="M4453 8923 c-18 -6 -16 -23 2 -23 8 0 15 -5 15 -11 0 -5 4 -8 9 -4 5
3 16 -4 24 -16 16 -22 31 -11 21 15 -8 20 -54 45 -71 39z"/>
<path d="M3760 8891 c-35 -14 -98 -74 -93 -87 11 -30 73 7 100 59 16 32 15 37
-7 28z"/>
<path d="M4541 8833 c-1 -23 -8 -37 -26 -49 -19 -12 -23 -22 -19 -40 7 -26 2
-29 -24 -15 -24 13 -58 -17 -67 -58 -5 -25 -10 -30 -16 -20 -11 19 -39 2 -59
-37 -8 -15 -25 -36 -36 -46 -12 -10 -24 -29 -26 -43 -4 -21 -1 -25 18 -25 13
0 28 9 34 20 6 11 16 20 23 20 15 0 70 68 63 78 -3 5 17 15 44 22 27 7 51 19
54 25 2 7 29 28 59 48 30 20 57 43 61 52 3 8 17 15 31 15 22 0 26 4 23 23 -2
12 -7 21 -11 19 -4 -2 -17 7 -27 20 -11 13 -19 18 -20 11 0 -15 -28 -43 -44
-43 -7 0 -17 12 -23 28 l-11 27 -1 -32z"/>
<path d="M4400 8791 c0 -12 -4 -21 -10 -21 -16 0 -11 -24 8 -36 15 -10 17 -6
19 27 1 21 -2 41 -7 44 -6 3 -10 -3 -10 -14z"/>
<path d="M4675 8747 c-19 -17 -25 -26 -15 -26 22 0 53 26 48 40 -2 7 -15 2
-33 -14z"/>
<path d="M3595 8749 c-4 -6 -5 -12 -2 -15 2 -3 7 2 10 11 7 17 1 20 -8 4z"/>
<path d="M4740 8751 c0 -6 4 -13 10 -16 6 -3 7 1 4 9 -7 18 -14 21 -14 7z"/>
<path d="M4819 8713 c-34 -36 -64 -83 -53 -82 5 0 26 21 47 45 43 48 47 82 6
37z"/>
<path d="M4317 8693 c-11 -10 -8 -43 3 -43 6 0 10 11 10 25 0 26 -2 29 -13 18z"/>
<path d="M4553 8667 c-41 -31 -52 -50 -35 -61 12 -7 111 66 112 82 0 22 -34
13 -77 -21z"/>
<path d="M5527 8653 c-11 -13 -17 -27 -14 -30 3 -2 13 7 23 21 22 34 15 42 -9
9z"/>
<path d="M4397 8517 c-67 -62 -85 -85 -78 -96 8 -12 15 -10 44 12 112 85 178
167 135 167 -7 0 -53 -37 -101 -83z"/>
<path d="M4550 8545 c-7 -9 -10 -18 -7 -21 3 -3 10 4 17 15 13 25 8 27 -10 6z"/>
<path d="M4504 8518 l-19 -23 23 19 c21 18 27 26 19 26 -2 0 -12 -10 -23 -22z"/>
<path d="M4224 8488 c-7 -22 -39 -62 -76 -96 -10 -9 -23 -31 -29 -49 -6 -18
-16 -33 -24 -33 -15 0 -25 -22 -25 -52 0 -17 3 -18 15 -8 8 7 15 20 15 29 0
10 12 26 28 38 15 11 40 40 57 64 16 24 36 53 45 64 18 22 24 65 10 65 -5 0
-12 -10 -16 -22z"/>
<path d="M4265 8369 c-63 -82 -70 -92 -59 -88 25 9 117 120 108 129 -6 6 -25
-9 -49 -41z"/>
<path d="M3891 8373 c-7 -8 -11 -16 -8 -19 2 -2 10 2 17 11 17 20 9 27 -9 8z"/>
<path d="M3157 8303 c-12 -11 -8 -23 8 -23 8 0 15 7 15 15 0 16 -12 20 -23 8z"/>
<path d="M3468 8233 c-9 -10 -13 -23 -11 -30 2 -6 -5 -17 -16 -23 -11 -5 -33
-32 -47 -58 -15 -26 -34 -55 -42 -65 -8 -9 -13 -20 -10 -23 4 -3 29 23 56 58
28 35 62 76 76 91 25 27 35 67 18 67 -5 0 -16 -8 -24 -17z"/>
<path d="M5770 8135 c0 -11 -5 -15 -15 -11 -9 3 -15 0 -15 -10 0 -11 4 -12 19
-4 26 13 34 27 21 35 -5 3 -10 -1 -10 -10z"/>
<path d="M5705 8100 c-3 -5 -1 -10 4 -10 6 0 11 5 11 10 0 6 -2 10 -4 10 -3 0
-8 -4 -11 -10z"/>
<path d="M5518 8093 c-16 -4 -16 -6 -4 -19 19 -18 32 -18 40 2 10 26 6 28 -36
17z"/>
<path d="M5953 8088 c-16 -20 -38 -87 -30 -94 9 -9 38 16 36 30 -1 6 1 24 6
39 8 32 3 44 -12 25z"/>
<path d="M4510 7949 c0 -5 5 -7 10 -4 6 3 10 8 10 11 0 2 -4 4 -10 4 -5 0 -10
-5 -10 -11z"/>
<path d="M6092 7918 c-16 -16 -15 -28 3 -28 8 0 15 9 15 20 0 23 -2 24 -18 8z"/>
<path d="M5877 7842 c-47 -63 -70 -107 -64 -130 3 -13 7 -10 17 13 8 17 31 56
53 89 48 74 44 93 -6 28z"/>
<path d="M3073 7762 c-6 -11 -14 -37 -18 -58 -3 -22 -8 -49 -11 -61 -2 -13 0
-23 4 -23 11 0 45 122 40 145 -3 13 -5 13 -15 -3z"/>
<path d="M6520 7741 c0 -20 13 -35 23 -25 7 8 -4 44 -14 44 -5 0 -9 -9 -9 -19z"/>
<path d="M6455 7718 c-4 -9 -2 -25 3 -35 10 -17 11 -17 17 -1 4 9 2 25 -3 35
-10 17 -11 17 -17 1z"/>
<path d="M6754 7569 c4 -46 8 -95 11 -109 2 -14 4 -33 4 -43 1 -10 5 -16 10
-13 4 3 6 38 3 77 -4 66 -3 72 12 66 10 -4 20 -7 22 -7 2 0 4 -22 4 -50 0 -27
4 -50 10 -50 6 0 9 40 7 99 -1 54 -5 97 -9 95 -3 -2 -9 2 -11 8 -3 7 -6 -6 -6
-29 -1 -56 -28 -61 -33 -6 -2 20 -9 39 -17 41 -11 4 -13 -10 -7 -79z"/>
<path d="M5737 7623 c-4 -3 -7 -13 -7 -22 1 -13 3 -13 11 2 11 19 8 33 -4 20z"/>
<path d="M3479 7198 c-13 -18 -26 -35 -29 -38 -9 -7 -124 -210 -138 -243 -44
-102 60 31 128 163 23 47 49 98 57 113 21 41 9 44 -18 5z"/>
<path d="M3222 7118 c-11 -18 -28 -51 -38 -73 -10 -22 -28 -54 -39 -71 -11
-16 -32 -77 -45 -134 l-25 -104 -11 39 c-15 54 -28 54 -32 -1 -2 -26 -9 -72
-17 -102 -8 -30 -12 -58 -10 -63 3 -4 1 -10 -4 -13 -9 -6 -8 -68 5 -184 5 -52
4 -64 -7 -60 -8 3 -20 22 -28 44 -8 21 -16 41 -18 43 -4 6 -28 -17 -29 -29 -1
-6 -2 -14 -3 -20 -2 -22 -19 -8 -25 21 -4 23 -10 30 -22 25 -14 -5 -15 -2 -9
21 13 47 14 124 2 226 l-11 98 -27 -73 c-32 -84 -34 -80 -15 28 22 122 29 207
17 199 -6 -3 -11 -1 -11 5 0 6 -4 9 -9 5 -5 -3 -12 -1 -15 4 -4 5 -2 12 4 16
5 3 10 21 10 38 l0 32 -20 -25 c-11 -14 -23 -36 -26 -50 -3 -14 -14 -56 -24
-95 -11 -38 -23 -92 -26 -120 -3 -27 -10 -65 -16 -84 -7 -24 -7 -39 1 -55 10
-18 8 -42 -9 -121 -12 -55 -22 -107 -24 -115 -9 -57 -34 -125 -82 -224 -13
-28 -24 -55 -24 -60 0 -6 -14 -26 -30 -45 -17 -18 -30 -34 -30 -35 0 -8 131 4
148 13 13 7 26 10 29 7 4 -3 12 -1 20 6 9 7 66 12 162 12 98 1 153 5 162 13 8
6 38 13 67 15 29 2 51 8 50 13 -2 6 -11 10 -20 9 -24 -1 -23 18 2 39 14 12 20
29 20 61 0 25 4 47 9 50 4 3 11 27 14 52 3 28 11 51 21 56 9 5 16 15 16 22 0
8 14 40 30 71 17 31 30 69 31 84 0 14 10 42 23 60 20 32 21 38 9 63 -13 25
-12 31 11 65 30 44 36 74 10 52 -8 -7 1 15 21 50 20 34 34 69 31 77 -15 39
-156 -169 -156 -229 0 -27 -60 -167 -72 -167 -4 0 -8 14 -8 30 0 17 -4 30 -10
30 -12 0 -13 44 -1 68 14 26 32 95 32 117 -1 11 -4 46 -6 78 -5 52 -3 62 20
88 14 17 25 36 25 44 0 7 11 37 24 65 14 29 22 58 19 65 -2 8 1 23 7 35 19 36
4 34 -18 -2z m-402 -195 c0 -5 -7 -17 -15 -27 -14 -19 -15 -19 -15 7 0 17 5
27 15 27 8 0 15 -3 15 -7z m-120 -657 c0 -2 -7 -9 -15 -16 -13 -11 -14 -10 -9
4 5 14 24 23 24 12z m130 -37 c-12 -43 -36 -77 -47 -66 -4 5 0 14 10 21 9 7
17 18 17 24 0 17 20 65 25 60 2 -2 0 -20 -5 -39z m-167 -14 c-3 -9 -8 -14 -10
-11 -3 3 -2 9 2 15 9 16 15 13 8 -4z m-29 -47 c-23 -28 -37 -38 -43 -33 -5 6
42 55 53 55 5 0 1 -10 -10 -22z m456 -29 c0 -5 -4 -9 -10 -9 -5 0 -10 7 -10
16 0 8 5 12 10 9 6 -3 10 -10 10 -16z m-371 -52 c-8 -7 -18 -20 -22 -30 -4
-10 -12 -15 -17 -12 -11 7 33 55 48 55 4 0 0 -6 -9 -13z m91 -2 c0 -8 -2 -15
-4 -15 -2 0 -6 7 -10 15 -3 8 -1 15 4 15 6 0 10 -7 10 -15z m-247 -50 c-3 -9
-8 -14 -10 -11 -3 3 -2 9 2 15 9 16 15 13 8 -4z"/>
<path d="M2842 7060 c0 -19 2 -27 5 -17 2 9 2 25 0 35 -3 9 -5 1 -5 -18z"/>
<path d="M2580 6998 c-13 -33 -44 -142 -42 -150 1 -4 -14 -12 -33 -18 -19 -6
-35 -18 -35 -25 0 -7 -3 -21 -6 -29 -5 -12 -2 -15 11 -10 10 4 21 1 25 -6 22
-35 63 41 85 155 8 39 17 78 20 88 11 26 -14 21 -25 -5z"/>
<path d="M2507 6873 c-4 -3 -7 -13 -7 -22 1 -13 3 -13 11 2 11 19 8 33 -4 20z"/>
<path d="M6705 6803 c-3 -15 -10 -77 -15 -139 -5 -61 -14 -124 -20 -138 -13
-34 -13 -49 0 -41 22 13 42 114 45 228 2 64 2 117 1 117 -2 0 -7 -12 -11 -27z"/>
<path d="M3475 6770 c3 -6 2 -10 -4 -10 -16 0 -52 -91 -57 -145 l-5 -50 27 55
c15 30 31 64 37 74 21 43 26 74 11 80 -9 3 -12 1 -9 -4z"/>
<path d="M2434 6712 c-1 -15 1 -21 3 -14 3 6 9 10 14 6 14 -8 11 12 -3 24 -10
8 -13 4 -14 -16z"/>
<path d="M2461 6670 c-8 -30 -20 -60 -27 -68 -8 -7 -14 -20 -14 -28 0 -8 -4
-14 -8 -14 -4 0 -8 -15 -8 -33 0 -20 -10 -46 -26 -68 -17 -21 -29 -54 -34 -87
-4 -35 -13 -56 -24 -62 -18 -9 -48 -106 -37 -117 3 -2 22 -5 41 -6 19 0 37 -6
40 -13 8 -20 54 -14 60 9 4 18 7 19 22 6 14 -12 16 -11 13 5 -5 25 -24 31 -40
13 -18 -18 -61 -10 -56 12 2 9 9 15 15 14 7 -2 12 3 12 11 0 8 9 24 21 37 l20
24 -11 -23 c-10 -21 -10 -23 7 -13 36 19 73 84 73 129 0 23 4 42 9 42 5 0 12
9 16 19 10 33 37 14 30 -20 -8 -36 12 -39 21 -3 5 18 1 29 -12 38 -16 12 -17
19 -6 67 15 74 22 169 12 169 -10 0 -40 -57 -40 -76 0 -7 -5 -16 -11 -20 -9
-5 -10 7 -5 42 6 40 5 47 -5 37 -19 -19 -27 -16 -31 10 -2 14 -8 3 -17 -33z
m-21 -330 c4 0 10 -7 14 -15 7 -19 -3 -19 -28 0 -13 10 -16 20 -11 32 8 17 8
17 12 1 3 -10 8 -18 13 -18z"/>
<path d="M6631 6653 c-1 -12 4 -25 9 -28 12 -7 12 2 0 30 -8 19 -9 19 -9 -2z"/>
<path d="M2625 6600 c-8 -12 -16 -70 -10 -70 6 0 25 73 21 78 -2 2 -7 -2 -11
-8z"/>
<path d="M6613 6578 c-7 -8 -16 -29 -19 -46 -5 -26 -3 -32 10 -32 21 0 28 19
24 61 -3 27 -5 30 -15 17z"/>
<path d="M6650 6435 c0 -31 0 -28 -10 -67 -9 -30 -8 -31 5 -14 8 11 15 32 15
47 0 15 3 34 6 43 3 9 1 16 -5 16 -6 0 -11 -11 -11 -25z"/>
<path d="M2545 6357 c-4 -10 -5 -21 -1 -24 10 -10 18 4 13 24 -4 17 -4 17 -12
0z"/>
<path d="M2516 6295 c-7 -20 23 -33 34 -14 5 7 6 17 4 21 -9 13 -32 9 -38 -7z"/>
<path d="M6624 6182 c-11 -7 -44 -65 -44 -77 0 -3 4 -3 10 0 6 4 6 -3 0 -21
-6 -15 -9 -29 -6 -31 9 -10 38 48 40 79 0 18 5 36 11 40 13 9 2 19 -11 10z
m-4 -52 c0 -5 -5 -10 -11 -10 -5 0 -7 5 -4 10 3 6 8 10 11 10 2 0 4 -4 4 -10z"/>
<path d="M2309 6153 c-1 -5 -1 -12 0 -17 1 -5 -5 -6 -14 -3 -21 9 -19 -9 3
-18 51 -21 71 -23 76 -8 8 19 -1 33 -20 33 -8 0 -14 5 -14 10 0 11 -29 14 -31
3z"/>
<path d="M7021 7901 c-10 -17 -6 -64 5 -83 12 -19 24 7 24 53 0 51 -12 63 -29
30z"/>
<path d="M7151 7800 c0 -14 4 -32 9 -40 8 -12 10 -12 9 5 0 11 -4 29 -9 40 -8
18 -9 18 -9 -5z"/>
<path d="M7577 7780 c-3 -11 -1 -20 4 -20 5 0 9 9 9 20 0 11 -2 20 -4 20 -2 0
-6 -9 -9 -20z"/>
<path d="M7361 7664 c0 -11 3 -14 6 -6 3 7 2 16 -1 19 -3 4 -6 -2 -5 -13z"/>
<path d="M7290 7629 c0 -5 5 -9 10 -9 17 0 11 -41 -10 -75 -19 -31 -20 -36 -5
-106 9 -41 18 -83 21 -93 6 -19 7 -19 18 0 6 10 11 44 12 74 0 30 4 80 7 111
9 67 -3 104 -32 106 -12 1 -21 -2 -21 -8z m26 -127 c-11 -11 -16 -12 -16 -4 0
18 24 43 29 30 2 -5 -4 -17 -13 -26z"/>
<path d="M7047 7567 c-3 -9 3 -26 13 -39 19 -22 19 -22 20 -2 0 11 -6 28 -13
38 -12 17 -14 17 -20 3z"/>
<path d="M7117 7483 c-9 -11 -17 -33 -17 -49 0 -22 3 -26 10 -14 9 13 11 13
19 0 16 -24 23 -4 14 40 -8 41 -9 42 -26 23z"/>
<path d="M7105 7390 c3 -5 8 -10 11 -10 2 0 4 5 4 10 0 6 -5 10 -11 10 -5 0
-7 -4 -4 -10z"/>
<path d="M7253 7343 c1 -21 5 -29 11 -23 6 6 5 18 -2 32 -10 22 -11 21 -9 -9z"/>
<path d="M7230 7260 c0 -11 2 -20 4 -20 2 0 6 9 9 20 3 11 1 20 -4 20 -5 0 -9
-9 -9 -20z"/>
<path d="M7063 6948 c-13 -17 -23 -58 -14 -58 7 0 33 62 27 67 -2 2 -8 -2 -13
-9z"/>
<path d="M7096 6825 c-11 -29 -7 -37 10 -20 11 11 13 20 7 26 -7 7 -12 5 -17
-6z"/>
<path d="M6893 6765 c-3 -9 -3 -18 -1 -21 3 -3 8 4 11 16 6 23 -1 27 -10 5z"/>
<path d="M6927 6753 c-9 -17 -18 -103 -10 -103 9 0 33 70 33 95 0 16 -16 21
-23 8z"/>
<path d="M6961 6718 c-5 -13 -7 -25 -5 -27 6 -7 22 9 27 29 7 27 -12 25 -22
-2z"/>
<path d="M5560 6005 c-91 -6 -190 -17 -220 -24 -30 -6 -104 -20 -165 -31 -135
-25 -198 -42 -298 -82 -78 -31 -78 -31 -71 -62 3 -17 10 -35 14 -41 4 -5 7
-27 7 -47 1 -21 8 -45 17 -53 9 -9 16 -13 17 -8 1 4 4 -3 8 -17 6 -22 12 -25
47 -22 21 2 44 8 49 12 14 11 75 23 75 15 0 -3 -7 -13 -15 -21 -21 -21 -19
-27 11 -41 23 -11 27 -10 31 8 5 17 11 20 34 15 16 -3 29 -1 29 4 0 6 7 10 16
10 12 0 15 -6 10 -25 -6 -22 -3 -25 19 -25 18 0 25 5 25 20 0 24 9 26 24 4 17
-23 42 -8 61 38 19 49 63 108 79 108 8 0 11 -11 8 -30 -6 -43 24 -115 56 -136
18 -12 53 -19 110 -22 70 -4 92 -1 143 19 32 13 60 29 60 36 1 7 2 18 3 24 0
7 11 15 24 20 19 7 22 5 22 -15 0 -20 6 -24 41 -29 54 -7 68 -21 46 -45 -9
-10 -17 -31 -17 -46 0 -24 3 -28 23 -22 12 3 31 6 43 6 11 0 31 10 43 22 34
31 146 30 191 -2 16 -12 30 -17 30 -11 0 6 9 11 20 11 11 0 20 4 20 9 0 14 51
20 81 9 15 -5 30 -17 34 -26 6 -15 8 -15 15 3 7 19 6 134 -2 145 -6 10 -50
-29 -43 -39 3 -6 -1 -11 -9 -11 -9 0 -16 -4 -16 -10 0 -17 -67 -12 -74 6 -3 9
-6 17 -6 18 0 2 17 8 38 14 48 15 112 72 112 99 0 29 -53 73 -80 66 -11 -3
-20 -1 -20 5 0 5 -9 12 -20 15 -13 3 -18 10 -14 21 4 9 1 16 -6 16 -8 0 -10
-9 -6 -25 7 -27 3 -29 -64 -25 -43 2 -44 3 -28 29 10 17 10 23 -1 33 -12 11
-13 10 -8 -4 4 -12 2 -15 -9 -11 -7 3 -14 9 -14 13 0 44 54 57 64 15 8 -30 36
-33 53 -5 10 16 10 21 -2 27 -8 5 -15 23 -17 41 -1 22 -7 32 -18 32 -9 0 -22
6 -29 13 -10 10 -11 7 -6 -15 9 -37 -28 -49 -56 -19 -11 12 -27 21 -37 22 -14
0 -14 2 2 8 32 12 -110 31 -221 30 -54 -1 -172 -7 -263 -14z m448 -64 c1 -1
-3 -7 -10 -14 -12 -13 -40 -14 -98 -3 -14 3 -19 3 -12 0 6 -3 12 -12 12 -20 0
-9 11 -14 30 -14 17 0 44 -7 60 -15 17 -9 30 -11 30 -6 0 5 9 11 21 14 12 3
18 3 15 0 -3 -3 6 -16 19 -29 14 -13 25 -26 25 -29 0 -20 -169 19 -183 42 -7
11 -12 12 -24 2 -12 -10 -16 -10 -23 0 -4 8 -13 10 -19 7 -6 -4 -11 -2 -11 3
0 6 -7 11 -15 11 -8 0 -15 7 -15 16 0 8 4 12 10 9 12 -8 52 19 43 29 -5 5 124
2 145 -3z m159 -4 c0 -8 -6 -14 -14 -14 -14 0 -17 10 -6 20 10 11 20 8 20 -6z
m-77 -21 c0 -3 -4 -8 -10 -11 -5 -3 -10 -1 -10 4 0 6 5 11 10 11 6 0 10 -2 10
-4z m-427 -65 l42 -19 -40 4 c-22 1 -62 4 -88 5 -26 1 -50 6 -52 10 -3 4 -15
5 -28 2 -15 -4 -19 -2 -12 5 26 27 112 23 178 -7z m541 -286 c-4 -8 -8 -15
-10 -15 -2 0 -4 7 -4 15 0 8 4 15 10 15 5 0 7 -7 4 -15z m-24 -14 c0 -5 -7
-12 -16 -15 -14 -5 -15 -4 -4 9 14 17 20 19 20 6z"/>
<path d="M5858 5903 c7 -3 16 -2 19 1 4 3 -2 6 -13 5 -11 0 -14 -3 -6 -6z"/>
<path d="M6075 5990 c3 -5 8 -10 11 -10 2 0 4 5 4 10 0 6 -5 10 -11 10 -5 0
-7 -4 -4 -10z"/>
<path d="M6100 5970 c0 -5 5 -10 11 -10 5 0 7 5 4 10 -3 6 -8 10 -11 10 -2 0
-4 -4 -4 -10z"/>
<path d="M2896 5951 c-45 -5 -50 -9 -60 -38 -6 -18 -21 -43 -34 -55 -22 -21
-24 -22 -36 -6 -12 16 -16 16 -64 0 l-52 -17 1 -152 c0 -116 3 -153 13 -153
17 0 48 37 69 83 18 40 41 48 56 18 9 -15 21 -18 72 -16 37 1 64 7 69 14 4 8
11 50 16 95 9 96 9 97 27 161 8 28 12 56 10 63 -5 13 -7 13 -87 3z m30 -67
c-3 -9 -6 -31 -6 -49 0 -25 -6 -38 -21 -45 -11 -7 -23 -9 -26 -7 -6 7 17 89
29 105 15 17 31 15 24 -4z"/>
<path d="M3605 5930 c-3 -5 -1 -10 4 -10 6 0 11 5 11 10 0 6 -2 10 -4 10 -3 0
-8 -4 -11 -10z"/>
<path d="M2695 5890 c3 -5 13 -10 21 -10 8 0 12 5 9 10 -3 6 -13 10 -21 10 -8
0 -12 -4 -9 -10z"/>
<path d="M6448 5745 c-37 -39 -48 -57 -48 -82 0 -18 3 -33 6 -33 14 0 84 76
84 91 0 10 7 24 15 33 8 8 15 21 15 28 0 10 -2 10 -9 -1 -8 -12 -9 -12 -12 0
-3 9 -21 -4 -51 -36z"/>
<path d="M4760 5571 c0 -5 16 -30 35 -55 25 -33 34 -53 30 -69 -6 -24 33 -115
57 -134 7 -6 27 -12 44 -15 26 -3 30 -1 28 16 -1 12 -7 33 -12 48 -8 19 -8 35
1 57 9 25 8 33 -8 50 -10 12 -25 21 -33 21 -8 0 -37 20 -63 45 -45 42 -79 57
-79 36z m110 -150 c0 -6 -4 -13 -10 -16 -5 -3 -10 1 -10 9 0 9 5 16 10 16 6 0
10 -4 10 -9z"/>
<path d="M2691 5526 c-26 -27 -32 -40 -29 -67 l3 -34 23 25 c20 22 48 97 39
106 -2 2 -18 -11 -36 -30z"/>
<path d="M4076 5481 c-3 -5 -16 -7 -29 -4 -18 4 -19 3 -7 -6 13 -10 11 -14
-13 -32 l-28 -21 22 -24 c34 -36 57 -31 64 14 4 20 9 44 11 54 5 18 -11 34
-20 19z m-11 -81 c-5 -8 -11 -8 -17 -2 -6 6 -7 16 -3 22 5 8 11 8 17 2 6 -6 7
-16 3 -22z"/>
<path d="M6741 5434 c0 -11 3 -14 6 -6 3 7 2 16 -1 19 -3 4 -6 -2 -5 -13z"/>
<path d="M2677 5403 c-4 -3 -7 -11 -7 -17 0 -6 5 -5 12 2 6 6 9 14 7 17 -3 3
-9 2 -12 -2z"/>
<path d="M6707 5403 c-7 -7 11 -33 23 -33 4 0 10 9 13 20 4 14 0 20 -12 20
-10 0 -21 -3 -24 -7z"/>
<path d="M2569 5100 c-1 -8 -3 -26 -5 -40 -1 -14 -4 -47 -6 -73 -1 -27 -8 -53
-15 -59 -19 -15 -16 -38 5 -38 31 0 42 -22 42 -79 0 -34 7 -68 17 -86 10 -19
16 -53 17 -92 0 -42 4 -63 11 -63 7 0 18 -20 25 -45 15 -55 37 -75 26 -24 -21
93 -25 117 -26 151 0 20 -5 38 -11 40 -15 5 -35 113 -50 268 -7 74 -16 139
-21 145 -5 5 -9 3 -9 -5z"/>
<path d="M6776 5092 c-4 -6 -13 -9 -21 -5 -16 6 -21 -12 -6 -21 17 -11 51 8
42 23 -6 9 -11 10 -15 3z"/>
<path d="M6710 5046 c-7 -14 -10 -31 -7 -39 3 -9 -1 -18 -10 -22 -12 -4 -13
-9 -5 -17 8 -8 16 -8 28 3 16 12 17 12 9 -1 -14 -23 -13 -50 1 -50 8 0 11 6 8
15 -4 8 -2 15 4 15 12 0 5 59 -9 76 -5 6 -7 19 -3 28 9 24 -1 19 -16 -8z"/>
<path d="M6755 5040 c-8 -13 -1 -24 14 -19 6 3 7 10 2 18 -6 10 -10 10 -16 1z"/>
<path d="M6670 5000 c0 -5 5 -10 10 -10 6 0 10 5 10 10 0 6 -4 10 -10 10 -5 0
-10 -4 -10 -10z"/>
<path d="M6779 5001 c-13 -5 -10 -10 17 -23 36 -19 45 -11 17 14 -10 9 -25 13
-34 9z"/>
<path d="M6655 4959 c-4 -6 -3 -15 3 -21 6 -6 11 -4 15 6 7 18 -9 31 -18 15z"/>
<path d="M6755 4911 c-6 -11 9 -23 19 -14 9 9 7 23 -3 23 -6 0 -12 -4 -16 -9z"/>
<path d="M6718 4904 c-12 -12 -9 -31 5 -31 6 0 21 -4 32 -7 16 -5 16 -4 -2 5
-12 6 -23 18 -25 26 -2 8 -6 11 -10 7z"/>
<path d="M6790 4900 c0 -5 5 -10 11 -10 5 0 7 5 4 10 -3 6 -8 10 -11 10 -2 0
-4 -4 -4 -10z"/>
<path d="M6660 4864 c0 -22 2 -25 15 -14 8 7 15 19 15 26 0 8 -7 14 -15 14
-10 0 -15 -10 -15 -26z"/>
<path d="M2509 4848 c-1 -13 -1 -26 0 -30 0 -4 -6 -23 -14 -42 -8 -19 -15 -59
-15 -88 0 -49 1 -51 15 -31 8 12 12 28 9 36 -5 13 2 58 22 150 4 17 2 27 -5
27 -6 0 -12 -10 -12 -22z"/>
<path d="M4821 4851 c-12 -21 -5 -31 20 -31 9 0 19 -7 23 -15 3 -8 17 -20 31
-27 14 -6 25 -19 25 -29 0 -9 6 -19 14 -22 8 -3 17 -21 21 -39 4 -18 10 -37
13 -42 10 -17 8 -81 -4 -128 -7 -27 -9 -48 -6 -49 4 0 -3 -4 -14 -9 -20 -8
-72 4 -129 29 -43 20 -111 37 -142 36 -18 0 -33 3 -33 7 0 4 -14 2 -32 -3 -17
-5 -34 -6 -37 -4 -2 3 2 5 10 5 12 0 12 2 0 9 -8 5 -20 7 -28 4 -7 -3 -21 -2
-30 3 -36 15 -71 12 -92 -10 -22 -22 -44 -43 -75 -66 -13 -10 -54 -17 -130
-20 l-111 -5 -3 -32 c-2 -18 -7 -33 -12 -33 -5 0 -35 29 -66 65 -72 82 -90 84
-154 21 -15 -15 -17 -23 -7 -45 12 -29 61 -81 123 -129 l41 -32 24 21 c19 16
24 17 31 5 4 -8 29 -17 56 -21 51 -7 57 -13 83 -95 17 -55 31 -80 46 -80 7 0
13 -5 13 -11 0 -5 -4 -8 -9 -4 -5 3 -12 1 -16 -5 -3 -5 0 -10 8 -10 7 0 14 -6
15 -12 1 -7 5 -30 8 -50 4 -26 2 -38 -5 -38 -9 0 -9 -6 0 -22 8 -14 14 -18 17
-10 2 6 10 12 18 12 8 0 27 21 42 46 25 43 29 45 62 40 23 -4 40 0 51 10 10 9
29 17 43 18 36 4 68 35 60 58 -6 21 -1 22 25 7 26 -17 92 -3 98 22 6 22 19 25
26 7 3 -8 6 -6 6 5 1 15 19 22 45 18 46 -9 156 78 156 123 0 12 9 42 21 65 11
24 23 59 26 78 3 19 12 37 19 40 8 3 14 12 14 20 0 8 8 13 18 12 9 -1 25 1 35
6 12 5 28 -1 52 -19 19 -15 40 -24 47 -20 8 5 9 2 5 -11 -7 -17 5 -32 46 -56
14 -8 17 -6 17 11 0 11 -6 20 -14 20 -15 0 -49 47 -51 70 -1 9 -18 32 -38 53
-20 20 -37 39 -37 43 0 4 -11 22 -25 40 -14 18 -25 38 -25 45 0 13 -49 82 -62
87 -4 2 -8 10 -8 18 0 8 -7 14 -15 14 -8 0 -15 4 -15 8 0 9 -89 52 -108 52 -6
0 -16 -8 -21 -19z m-121 -711 c0 -5 -4 -10 -10 -10 -5 0 -10 5 -10 10 0 6 5
10 10 10 6 0 10 -4 10 -10z"/>
<path d="M2545 4830 c-7 -12 2 -30 16 -30 12 0 12 27 0 35 -5 3 -12 1 -16 -5z"/>
<path d="M3852 4738 c-12 -24 -22 -49 -22 -56 0 -22 39 10 50 42 23 67 5 75
-28 14z"/>
<path d="M6637 4733 c-4 -3 -7 -11 -7 -17 0 -6 5 -5 12 2 6 6 9 14 7 17 -3 3
-9 2 -12 -2z"/>
<path d="M3803 4653 c4 -3 2 -12 -4 -20 -8 -9 -8 -13 -1 -13 6 0 16 9 22 20 9
16 8 20 -6 20 -10 0 -14 -3 -11 -7z"/>
<path d="M3775 4600 c-3 -5 -4 -14 0 -19 3 -5 1 -12 -5 -16 -5 -3 -10 -21 -10
-39 0 -28 -5 -36 -30 -46 -17 -7 -30 -20 -30 -30 0 -10 -12 -23 -28 -29 -35
-15 -92 -66 -108 -97 -13 -25 -15 -28 -66 -88 -18 -22 -32 -48 -30 -58 2 -11
-3 -18 -12 -18 -9 0 -16 -3 -16 -8 0 -4 -16 -16 -35 -26 -37 -20 -44 -33 -21
-42 8 -3 12 -12 9 -20 -3 -8 -1 -14 5 -14 5 0 12 7 16 15 3 8 10 15 16 15 6 0
3 -11 -6 -25 -38 -59 3 -33 85 52 59 61 98 112 119 155 17 35 45 79 62 98 17
19 33 45 36 58 4 12 12 22 20 22 13 0 18 12 15 33 0 4 4 7 10 7 5 0 7 5 4 10
-3 6 -2 10 3 10 6 0 13 17 16 38 4 20 9 45 12 55 6 18 -20 25 -31 7z"/>
<path d="M2589 4543 c0 -5 -2 -18 -5 -30 -3 -17 0 -21 11 -17 17 7 21 54 5 54
-5 0 -10 -3 -11 -7z"/>
<path d="M4660 4546 c0 -2 7 -7 16 -10 8 -3 12 -2 9 4 -6 10 -25 14 -25 6z"/>
<path d="M6740 4490 c0 -5 7 -7 15 -4 8 4 15 8 15 10 0 2 -7 4 -15 4 -8 0 -15
-4 -15 -10z"/>
<path d="M6660 4377 c0 -8 -6 -18 -12 -20 -9 -4 -8 -6 2 -6 8 0 21 3 28 8 10
6 10 10 -3 21 -12 10 -15 10 -15 -3z"/>
<path d="M6537 4331 c-4 -18 9 -41 24 -41 8 0 -1 49 -11 55 -4 3 -10 -4 -13
-14z"/>
<path d="M6735 4309 c-4 -6 -5 -13 -2 -16 7 -7 27 6 27 18 0 12 -17 12 -25 -2z"/>
<path d="M6760 4290 c0 -5 7 -10 15 -10 8 0 15 5 15 10 0 6 -7 10 -15 10 -8 0
-15 -4 -15 -10z"/>
<path d="M6540 4271 c0 -8 -8 -20 -17 -27 -10 -7 -14 -16 -10 -20 4 -4 17 2
29 14 17 17 20 24 10 34 -9 9 -12 9 -12 -1z"/>
<path d="M6420 4226 c0 -19 27 -28 34 -11 2 7 -2 16 -10 19 -22 8 -24 8 -24
-8z"/>
<path d="M6455 4167 c-34 -43 -34 -51 5 -89 l38 -36 5 27 c6 31 0 41 -14 21
-7 -11 -8 -7 -5 13 4 24 3 27 -10 16 -11 -9 -18 -9 -26 -1 -9 9 -8 12 4 12 9
0 18 11 20 25 6 27 -1 32 -17 12z"/>
<path d="M6500 4130 c0 -5 5 -10 11 -10 5 0 7 5 4 10 -3 6 -8 10 -11 10 -2 0
-4 -4 -4 -10z"/>
<path d="M6406 4088 c11 -17 12 -48 3 -54 -15 -9 -21 17 -7 33 12 15 11 15 -9
4 -27 -14 -27 -15 -10 -44 8 -12 13 -28 12 -34 -2 -7 -3 -20 -4 -28 -1 -9 -7
-12 -18 -8 -13 5 -15 2 -10 -11 4 -10 1 -19 -8 -22 -8 -4 -15 -10 -15 -16 0
-5 5 -6 11 -2 6 3 15 1 19 -6 5 -8 15 -10 26 -5 18 8 18 8 1 12 -26 6 -17 37
12 41 27 4 46 -18 28 -31 -9 -6 -8 -7 2 -5 15 4 23 41 14 71 -3 13 -10 16 -25
11 -21 -6 -21 -6 1 17 26 28 27 57 4 75 -23 17 -37 18 -27 2z"/>
<path d="M6284 4026 c-1 -19 2 -22 18 -18 12 3 27 -4 40 -17 11 -12 23 -20 26
-17 3 3 -4 14 -16 23 -47 41 -62 53 -65 53 -1 0 -3 -11 -3 -24z"/>
<path d="M6670 4015 c-10 -12 -10 -15 3 -15 8 0 17 -6 20 -12 2 -7 4 -1 4 15
1 30 -8 34 -27 12z"/>
<path d="M6160 4000 c-8 -5 -12 -12 -9 -15 8 -8 39 5 39 16 0 11 -11 11 -30
-1z"/>
<path d="M6485 4000 c3 -5 10 -10 16 -10 5 0 9 5 9 10 0 6 -7 10 -16 10 -8 0
-12 -4 -9 -10z"/>
<path d="M6210 3959 c0 -5 5 -7 10 -4 6 3 10 8 10 11 0 2 -4 4 -10 4 -5 0 -10
-5 -10 -11z"/>
<path d="M6676 3953 c2 -7 -2 -15 -8 -19 -7 -4 -6 -9 3 -15 18 -11 29 -2 29
22 0 11 -4 18 -9 15 -5 -4 -11 -3 -14 1 -2 5 -2 3 -1 -4z"/>
<path d="M6138 3933 c7 -3 16 -2 19 1 4 3 -2 6 -13 5 -11 0 -14 -3 -6 -6z"/>
<path d="M6096 3915 c-4 -10 -2 -23 3 -28 7 -7 7 -15 -1 -24 -6 -7 -8 -16 -5
-20 9 -8 37 17 37 33 0 7 6 11 14 8 18 -7 27 8 16 26 -7 12 -12 12 -21 3 -10
-10 -15 -9 -24 4 -11 14 -12 14 -19 -2z"/>
<path d="M6301 3901 c-16 -28 -13 -58 5 -65 8 -3 13 -2 10 3 -3 5 1 11 9 15 8
3 15 10 15 15 0 6 -7 8 -16 4 -14 -5 -15 -3 -5 15 7 13 7 23 2 27 -6 3 -15 -3
-20 -14z"/>
<path d="M6530 3898 c0 -17 18 -44 24 -37 8 7 -5 49 -15 49 -5 0 -9 -6 -9 -12z"/>
<path d="M6396 3873 c-11 -11 -6 -23 9 -23 8 0 15 4 15 9 0 13 -16 22 -24 14z"/>
<path d="M6250 3858 c0 -9 7 -19 16 -22 15 -6 15 -4 3 11 -7 10 -15 20 -16 22
-2 2 -3 -3 -3 -11z"/>
<path d="M6240 3800 c-13 -8 -12 -10 3 -10 9 0 17 5 17 10 0 12 -1 12 -20 0z"/>
<path d="M6430 3753 c0 -22 2 -25 10 -13 13 20 13 40 0 40 -5 0 -10 -12 -10
-27z"/>
<path d="M4635 3761 c-6 -5 -38 -14 -73 -20 -34 -5 -75 -19 -91 -30 -16 -12
-34 -21 -40 -21 -6 0 -13 -12 -17 -27 -10 -49 -13 -52 -36 -48 -13 3 -47 7
-77 10 -64 6 -67 8 -46 28 8 9 14 22 13 29 -5 23 -38 40 -64 34 -32 -8 -34
-53 -1 -66 17 -7 7 -9 -40 -9 -50 -1 -67 3 -83 19 -20 20 -64 27 -74 11 -3 -5
-18 -11 -33 -14 -16 -2 -55 -13 -88 -22 -69 -20 -134 -23 -144 -6 -14 23 -74
32 -129 19 -49 -11 -54 -14 -82 -66 -17 -31 -30 -67 -30 -80 0 -21 3 -23 23
-17 12 3 40 9 62 12 22 3 62 16 88 30 42 21 61 24 135 22 48 -1 143 -1 212 0
69 0 170 -4 225 -10 184 -19 245 -21 298 -9 86 18 341 23 427 8 50 -9 105 -11
164 -6 50 4 97 3 107 -2 9 -5 43 -13 75 -16 33 -4 67 -13 77 -19 19 -13 57 -9
57 6 0 5 7 9 15 9 8 0 15 7 15 16 0 8 -4 13 -9 9 -6 -3 -6 8 0 29 14 51 -3 86
-41 86 -17 0 -33 6 -36 14 -3 8 -12 12 -20 9 -9 -3 -14 2 -14 15 0 11 -8 22
-20 25 -11 3 -20 12 -20 21 0 12 -11 16 -42 17 -67 2 -81 -1 -109 -21 -15 -10
-66 -26 -113 -35 -78 -15 -88 -15 -102 -1 -11 12 -36 16 -92 16 -54 0 -84 5
-100 16 -12 8 -22 12 -22 8 0 -4 -8 0 -17 8 -23 20 -76 31 -88 19z"/>
<path d="M6017 3703 c-10 -9 -9 -23 2 -23 5 0 11 7 15 15 5 15 -5 20 -17 8z"/>
<path d="M6360 3670 c0 -5 5 -10 10 -10 6 0 10 5 10 10 0 6 -4 10 -10 10 -5 0
-10 -4 -10 -10z"/>
<path d="M6285 3550 c-3 -5 -1 -10 4 -10 6 0 11 5 11 10 0 6 -2 10 -4 10 -3 0
-8 -4 -11 -10z"/>
<path d="M6020 3539 c0 -5 5 -7 10 -4 6 3 10 8 10 11 0 2 -4 4 -10 4 -5 0 -10
-5 -10 -11z"/>
<path d="M6250 3479 c0 -5 5 -7 10 -4 6 3 10 8 10 11 0 2 -4 4 -10 4 -5 0 -10
-5 -10 -11z"/>
<path d="M5956 3374 c-4 -10 -1 -14 6 -12 15 5 23 28 10 28 -5 0 -13 -7 -16
-16z"/>
<path d="M4315 3289 c-16 -5 -36 -7 -42 -4 -7 2 -13 -2 -13 -10 0 -8 -4 -15
-9 -15 -5 0 -12 -7 -15 -16 -4 -11 -1 -14 12 -10 9 3 38 8 65 12 38 5 47 3 47
-9 0 -8 -7 -20 -15 -27 -8 -7 -15 -23 -15 -35 0 -13 -3 -25 -7 -28 -5 -2 -2
-2 5 0 21 5 36 -8 21 -18 -11 -7 -10 -9 4 -9 26 0 21 -30 -5 -31 -13 0 -17 -3
-10 -6 6 -2 10 -8 7 -13 -3 -4 11 -10 31 -12 19 -2 37 0 40 4 3 4 -5 8 -18 9
-21 1 -20 2 7 14 16 7 40 11 53 9 13 -3 21 -1 18 4 -7 11 80 36 100 28 9 -4
26 0 38 7 12 8 41 13 69 11 40 -3 47 0 47 16 0 23 15 33 50 32 15 0 27 5 28
11 1 7 4 24 8 40 5 23 3 27 -15 27 -11 0 -21 -6 -21 -13 0 -11 -29 -13 -142
-11 -177 4 -175 4 -153 20 15 12 15 13 -4 23 -23 13 -124 13 -166 0z m115
-179 c0 -5 -7 -10 -16 -10 -8 0 -12 5 -9 10 3 6 10 10 16 10 5 0 9 -4 9 -10z"/>
<path d="M4242 3218 c-5 -7 -6 -22 -2 -32 4 -14 9 -16 14 -8 4 7 4 12 0 12 -4
0 1 9 11 20 15 17 16 20 3 20 -9 0 -20 -6 -26 -12z"/>
<path d="M4825 3220 c-3 -5 1 -10 10 -10 9 0 13 5 10 10 -3 6 -8 10 -10 10 -2
0 -7 -4 -10 -10z"/>
<path d="M4296 3203 c-6 -14 -5 -15 5 -6 7 7 10 15 7 18 -3 3 -9 -2 -12 -12z"/>
<path d="M5944 3163 c4 -5 13 -8 19 -8 7 0 11 -8 9 -18 -3 -18 13 -24 22 -8
12 18 -7 41 -32 41 -14 0 -22 -3 -18 -7z"/>
<path d="M2990 2390 c-9 -6 -10 -10 -3 -10 6 0 15 5 18 10 8 12 4 12 -15 0z"/>
<path d="M7475 880 c-3 -5 1 -10 9 -10 9 0 16 5 16 10 0 6 -4 10 -9 10 -6 0
-13 -4 -16 -10z"/>
<path d="M6636 2643 c-6 -14 -5 -15 5 -6 7 7 10 15 7 18 -3 3 -9 -2 -12 -12z"/>
<path d="M6670 2590 c-12 -8 -11 -10 8 -10 12 0 22 5 22 10 0 13 -11 13 -30 0z"/>
<path d="M6543 2573 c-17 -6 -16 -23 1 -23 8 0 16 7 20 15 6 15 1 17 -21 8z"/>
<path d="M6477 2549 c7 -7 15 -10 18 -7 3 3 -2 9 -12 12 -14 6 -15 5 -6 -5z"/>
<path d="M6195 2270 c3 -5 8 -10 11 -10 2 0 4 5 4 10 0 6 -5 10 -11 10 -5 0
-7 -4 -4 -10z"/>
<path d="M6125 2199 c-10 -15 3 -25 16 -12 7 7 7 13 1 17 -6 3 -14 1 -17 -5z"/>
<path d="M6081 2154 c10 -13 46 -8 55 7 3 5 -10 8 -30 7 -24 -2 -32 -6 -25
-14z"/>
<path d="M6830 1951 c0 -12 31 -43 37 -37 7 7 -16 46 -27 46 -6 0 -10 -4 -10
-9z"/>
<path d="M6783 1883 c0 -7 9 -13 19 -13 10 0 18 -6 18 -14 0 -21 21 -31 31
-15 11 17 11 21 0 38 -12 19 -68 22 -68 4z"/>
<path d="M5845 1840 c-3 -5 -1 -10 4 -10 6 0 11 5 11 10 0 6 -2 10 -4 10 -3 0
-8 -4 -11 -10z"/>
<path d="M5745 1710 c3 -5 8 -10 11 -10 2 0 4 5 4 10 0 6 -5 10 -11 10 -5 0
-7 -4 -4 -10z"/>
<path d="M4470 1650 c0 -5 5 -10 11 -10 5 0 7 5 4 10 -3 6 -8 10 -11 10 -2 0
-4 -4 -4 -10z"/>
<path d="M5631 1599 c-19 -42 -8 -46 12 -4 9 19 13 35 9 35 -4 0 -13 -14 -21
-31z"/>
<path d="M6830 1310 c0 -5 5 -10 11 -10 5 0 7 5 4 10 -3 6 -8 10 -11 10 -2 0
-4 -4 -4 -10z"/>
<path d="M3696 940 c-38 -38 -64 -70 -58 -70 6 0 19 11 30 25 11 14 24 25 30
25 13 0 92 70 92 82 0 22 -32 1 -94 -62z"/>
<path d="M3626 974 c-12 -31 3 -34 22 -4 10 16 10 20 -2 20 -8 0 -17 -7 -20
-16z"/>
<path d="M3860 980 c0 -5 -15 -13 -34 -18 -18 -5 -68 -38 -111 -73 -42 -35
-89 -73 -104 -83 -67 -49 -98 -87 -93 -113 3 -17 1 -24 -6 -19 -15 9 -45 -35
-32 -48 7 -7 15 -3 26 12 21 30 39 28 68 -10 17 -24 25 -47 26 -83 1 -27 1
-52 0 -55 -1 -3 -4 -27 -6 -54 -2 -27 -6 -52 -9 -55 -9 -8 -34 33 -41 67 -3
17 -10 32 -15 32 -4 0 -21 19 -38 43 -16 23 -44 57 -61 75 -31 31 -34 32 -51
16 -11 -10 -19 -28 -19 -41 0 -12 -4 -23 -10 -23 -5 0 -10 5 -10 10 0 6 -6 10
-13 10 -16 0 -205 -133 -229 -160 -9 -11 -19 -20 -23 -20 -4 0 -39 -35 -78
-77 -40 -43 -123 -129 -185 -193 l-112 -115 32 -3 c19 -2 40 3 54 15 18 15 96
77 139 111 6 4 18 11 28 15 10 4 16 11 13 16 -9 13 71 83 194 169 36 26 69 52
73 59 12 19 67 45 83 39 17 -7 19 -26 2 -26 -7 0 -24 -16 -38 -34 -18 -25 -31
-33 -48 -30 -12 3 -22 1 -21 -3 5 -29 -3 -52 -15 -47 -13 5 -136 -112 -136
-129 0 -13 43 3 67 26 23 21 41 18 28 -3 -4 -7 -9 -30 -11 -53 -1 -22 -7 -43
-12 -46 -9 -6 -42 -65 -42 -76 0 -3 29 -5 63 -5 52 0 67 4 82 20 19 21 120 92
204 143 66 41 119 95 147 149 18 35 32 49 59 58 19 6 35 17 35 24 0 7 11 23
25 36 24 23 26 23 43 6 12 -13 13 -16 3 -14 -9 2 -18 -10 -24 -29 -5 -18 -18
-35 -28 -38 -10 -4 -18 -9 -17 -13 1 -4 -15 -33 -35 -64 -20 -31 -37 -60 -37
-63 0 -12 -195 -195 -207 -195 -6 0 -14 4 -18 10 -8 13 -35 1 -35 -16 0 -12
42 -14 246 -14 l246 0 -6 24 c-3 13 -9 61 -12 108 -7 84 -6 86 50 254 31 93
61 184 67 202 8 25 5 61 -16 170 -37 197 -46 232 -56 232 -5 0 -9 -4 -9 -10z
m-385 -460 c3 -5 -2 -25 -12 -44 -15 -29 -21 -32 -40 -25 -25 9 -31 47 -11 67
14 14 54 16 63 2z m320 -60 c-3 -5 -12 -7 -20 -3 -21 7 -19 13 6 13 11 0 18
-4 14 -10z"/>
<path d="M7882 907 c1 -16 7 -23 16 -20 16 7 12 35 -5 40 -8 3 -12 -4 -11 -20z"/>
<path d="M3570 820 c-24 -22 -42 -41 -39 -44 4 -5 89 71 89 80 0 7 -4 4 -50
-36z"/>
<path d="M7756 814 c-9 -24 -8 -24 19 -12 14 6 25 15 25 20 0 15 -38 8 -44 -8z"/>
<path d="M7910 755 c-25 -19 -45 -40 -45 -47 0 -7 19 -23 43 -35 24 -12 50
-27 58 -33 7 -7 14 -9 14 -6 0 4 7 0 16 -8 31 -31 103 -76 122 -76 11 0 23 8
26 17 6 15 11 13 35 -12 16 -17 26 -35 24 -42 -8 -20 163 -93 219 -93 29 0 68
40 68 71 0 11 6 19 13 19 16 0 57 37 57 50 0 5 -18 19 -39 30 -22 11 -44 27
-49 36 -9 15 -26 18 -88 15 -12 -1 -39 -15 -60 -32 -21 -17 -51 -33 -66 -36
-16 -3 -28 -10 -28 -15 0 -5 5 -6 12 -2 7 4 8 3 4 -4 -10 -16 -26 -15 -26 2 0
7 -9 16 -20 19 -37 9 -26 28 48 81 56 41 61 50 35 64 -42 21 -70 22 -93 2 -24
-20 -34 -24 -59 -20 -12 1 -12 -1 -4 -12 17 -20 0 -42 -26 -33 -11 3 -21 11
-21 16 0 5 -11 9 -23 9 -26 0 -87 27 -87 39 0 4 5 12 11 18 13 13 2 53 -14 52
-7 0 -32 -16 -57 -34z m95 -106 c11 -16 1 -19 -13 -3 -7 8 -8 14 -3 14 5 0 13
-5 16 -11z"/>
<path d="M7740 601 c-8 -6 -18 -7 -23 -4 -5 3 -4 -4 2 -15 17 -31 35 -40 29
-14 -4 12 -2 22 3 22 5 0 9 -5 9 -11 0 -18 71 -98 93 -105 12 -4 24 -10 27
-13 3 -4 20 -17 38 -30 30 -21 36 -22 59 -10 53 28 48 45 -23 78 -36 17 -78
40 -95 51 -16 12 -34 18 -41 14 -7 -4 -10 -4 -6 1 7 8 -33 45 -49 45 -4 0 -15
-4 -23 -9z m100 -98 c0 -13 -3 -13 -15 -3 -8 7 -12 16 -9 21 8 13 24 1 24 -18z"/>
<path d="M3570 510 c-8 -5 -11 -12 -7 -16 4 -4 13 -2 19 4 15 15 7 24 -12 12z"/>
<path d="M8810 479 c-14 -6 -38 -23 -55 -39 -37 -35 -72 -49 -111 -44 -16 2
-21 1 -11 -2 13 -4 17 -12 13 -27 -3 -12 -2 -27 2 -33 9 -13 82 -37 192 -63
133 -31 204 -53 220 -69 8 -8 10 -12 3 -8 -6 3 -15 2 -18 -4 -4 -6 -21 -8 -40
-4 -19 3 -35 1 -39 -5 -4 -7 0 -10 11 -9 37 3 53 -2 53 -17 0 -12 -14 -15 -69
-15 -69 0 -101 6 -101 19 0 4 17 8 37 9 21 2 42 8 48 14 7 7 -8 8 -50 4 -112
-11 -160 -13 -170 -5 -13 9 -128 36 -182 42 -31 4 -46 1 -57 -12 -19 -21 -21
-51 -3 -51 7 0 24 -10 36 -22 23 -20 27 -21 123 -10 55 6 106 8 114 5 20 -7
17 -52 -6 -96 l-20 -37 110 0 c144 0 163 9 187 90 10 35 23 60 31 60 7 0 10 5
7 10 -3 6 1 10 9 10 10 0 13 6 10 15 -6 16 11 21 20 6 3 -5 24 -9 47 -9 25 -1
63 -12 92 -26 46 -25 52 -25 111 -15 58 11 62 14 58 36 -3 18 7 35 47 75 28
28 51 54 51 58 0 26 -129 76 -265 101 -60 12 -162 34 -226 50 -123 30 -168 34
-209 18z"/>
<path d="M7581 461 c-7 -5 -11 -13 -7 -19 3 -5 -2 -9 -11 -8 -12 1 -18 -7 -19
-21 -1 -17 4 -23 20 -23 12 0 26 -4 32 -10 5 -5 15 -6 23 0 12 7 11 11 -3 25
-15 16 -15 19 -1 35 23 25 -2 41 -34 21z"/>
<path d="M7640 432 c0 -5 10 -8 22 -8 28 1 30 -21 6 -53 -25 -32 -23 -50 7
-61 26 -10 34 -29 13 -31 -7 -1 -2 -5 12 -9 20 -7 17 -8 -20 -8 -25 0 -37 2
-27 5 22 6 17 27 -6 31 -12 2 -17 -3 -17 -17 0 -13 -5 -19 -14 -15 -8 3 -12
13 -9 25 4 15 0 19 -17 19 -18 0 -20 -3 -11 -14 7 -8 8 -17 3 -20 -5 -3 -12
-20 -14 -37 l-5 -31 91 7 c70 5 95 3 109 -7 18 -13 17 -14 -3 -33 -18 -16 -20
-16 -14 -2 3 9 2 17 -4 17 -16 0 -24 -33 -10 -41 7 -5 21 -6 31 -3 20 6 21 0
6 -27 -5 -11 -7 -29 -4 -40 7 -20 8 -20 26 -3 11 10 30 19 42 21 31 4 114 12
162 15 26 2 39 7 37 16 -3 18 25 27 42 13 7 -6 21 -9 29 -5 9 3 30 -4 48 -16
25 -19 33 -20 40 -9 6 10 -1 20 -25 34 -18 11 -40 28 -50 38 -10 9 -27 17 -38
17 -11 0 -42 12 -68 27 -45 25 -50 26 -77 13 -15 -8 -33 -20 -40 -26 -13 -12
-102 -7 -117 6 -13 12 2 30 25 30 11 0 30 -5 41 -11 13 -7 24 -7 30 -1 6 6 -2
11 -21 15 -36 7 -42 36 -11 44 31 8 19 24 -37 53 -28 14 -67 40 -87 58 -34 30
-76 43 -76 24z m305 -292 c3 -5 -1 -10 -9 -10 -9 0 -16 5 -16 10 0 6 4 10 9
10 6 0 13 -4 16 -10z"/>
<path d="M8074 397 c-25 -27 -37 -57 -23 -57 6 0 53 -20 105 -45 88 -43 97
-45 134 -35 62 17 54 41 -27 83 -38 18 -84 44 -103 55 -43 27 -59 27 -86 -1z"/>
<path d="M9980 381 c0 -6 5 -13 10 -16 6 -3 10 1 10 9 0 9 -4 16 -10 16 -5 0
-10 -4 -10 -9z"/>
<path d="M7432 335 c10 -10 49 -14 43 -4 -4 5 -16 9 -27 9 -12 0 -19 -2 -16
-5z"/>
<path d="M7500 316 c0 -9 30 -14 35 -6 4 6 -3 10 -14 10 -12 0 -21 -2 -21 -4z"/>
<path d="M7525 280 c-3 -5 3 -10 15 -10 12 0 18 5 15 10 -3 6 -10 10 -15 10
-5 0 -12 -4 -15 -10z"/>
<path d="M8702 248 c2 -6 10 -14 16 -16 7 -2 10 2 6 12 -7 18 -28 22 -22 4z"/>
<path d="M8746 232 c-2 -4 -1 -14 4 -22 7 -11 9 -9 7 8 -1 24 -3 26 -11 14z"/>
<path d="M3480 155 c-7 -8 -8 -15 -2 -15 5 0 15 7 22 15 7 8 8 15 2 15 -5 0
-15 -7 -22 -15z"/>
<path d="M9530 140 c-14 -5 -19 -8 -11 -9 7 -1 11 -7 8 -16 -4 -8 -2 -17 3
-20 6 -4 10 -1 10 4 0 6 10 11 23 10 21 0 21 -1 2 -8 -16 -7 -9 -10 30 -16 28
-4 64 -14 81 -22 18 -8 53 -13 80 -11 l49 3 -80 18 c-94 21 -109 26 -104 32 3
2 30 0 62 -4 49 -7 57 -5 57 8 0 9 -5 23 -10 31 -8 13 -10 12 -10 -4 0 -15 -5
-17 -27 -11 -16 4 -41 8 -58 9 -16 2 -32 4 -35 5 -16 7 -48 8 -70 1z"/>
<path d="M2965 130 c-3 -5 1 -10 9 -10 9 0 16 5 16 10 0 6 -4 10 -9 10 -6 0
-13 -4 -16 -10z"/>
<path d="M9149 138 c0 -2 -2 -18 -5 -35 -4 -32 -3 -33 31 -33 22 0 43 8 55 20
34 34 25 47 -30 49 -27 1 -50 0 -51 -1z"/>
<path d="M9456 121 c-3 -5 -16 -7 -29 -4 -18 4 -19 3 -7 -6 22 -16 50 -13 50
4 0 17 -6 19 -14 6z"/>
<path d="M9760 97 c0 -4 4 -6 8 -3 5 3 20 -1 35 -9 17 -8 36 -11 54 -6 25 7
26 8 8 16 -26 11 -105 13 -105 2z"/>
<path d="M9871 74 c-57 -31 -63 -38 -28 -32 15 3 27 2 27 -2 0 -3 16 -14 35
-23 31 -15 36 -15 41 -2 4 8 15 15 25 15 30 0 34 28 9 50 -30 26 -55 24 -109
-6z"/>
<path d="M8427 84 c-3 -4 -25 -8 -48 -10 -23 -2 -50 -11 -59 -19 -22 -20 -70
-34 -150 -44 -52 -7 -30 -9 113 -10 l177 -1 0 45 c0 42 -14 58 -33 39z"/>
<path d="M8532 58 c4 -22 1 -28 -13 -28 -12 0 -16 -5 -13 -15 8 -20 44 -19 60
3 16 20 19 56 4 47 -6 -4 -18 -1 -27 7 -14 11 -16 10 -11 -14z"/>
<path d="M6750 59 c0 -5 5 -7 10 -4 6 3 10 8 10 11 0 2 -4 4 -10 4 -5 0 -10
-5 -10 -11z"/>
<path d="M9200 49 c0 -5 5 -7 10 -4 6 3 10 8 10 11 0 2 -4 4 -10 4 -5 0 -10
-5 -10 -11z"/>
<path d="M9483 33 c-35 -2 -75 -10 -90 -18 -26 -14 -22 -15 70 -15 90 0 97 1
97 20 0 11 -3 19 -7 18 -5 -1 -36 -3 -70 -5z"/>
<path d="M6170 10 c0 -13 27 -13 35 0 3 6 -3 10 -14 10 -12 0 -21 -4 -21 -10z"/>
<path d="M6920 10 c0 -5 5 -10 11 -10 5 0 7 5 4 10 -3 6 -8 10 -11 10 -2 0 -4
-4 -4 -10z"/>
</g>
</svg>
